<svg width="395" height="200" viewBox="0 0 395 200" fill="none" xmlns="http://www.w3.org/2000/svg">
<path d="M120.52 198.765C118.824 199.54 116.6 199.579 73.1837 199.579C29.9152 199.579 27.5392 199.535 25.8652 198.774C19.6092 195.919 19.3346 187.206 25.4074 184.338L27.4084 183.392V180.218C27.4084 177.644 27.6395 176.553 28.6466 174.421C32.4699 166.317 43.2423 163.484 50.6492 168.629C51.3205 169.097 51.9265 169.412 51.9919 169.325C52.0573 169.237 52.5499 168.055 53.0862 166.698C54.4594 163.226 57.6157 159.509 60.8462 157.565C63.3747 156.041 63.488 155.905 62.5769 155.489C60.772 154.662 58.6751 152.573 57.8729 150.796C56.8964 148.637 56.8484 146.023 57.7029 141.544C58.492 137.385 59.8347 135.218 62.3938 133.974C65.0269 132.696 67.6601 132.796 73.1357 134.399C81.4058 136.816 85.944 138.155 91.6027 139.85C94.6588 140.765 97.2309 141.43 97.3181 141.33C98.2903 140.209 113.126 91.1365 112.638 90.6461C112.533 90.541 110.462 91.2021 108.038 92.1172C104.851 93.3169 103.535 94.0349 103.295 94.696C103.112 95.1996 102.41 99.0394 101.734 103.225C100.261 112.319 99.415 114.048 95.4173 116.115C93.255 117.236 92.71 117.336 89.872 117.135C84.5315 116.763 80.8695 114.075 79.675 109.657C79.2914 108.225 79.5181 106.032 81.0352 96.5218C83.3501 82.047 83.5986 81.1407 85.9964 78.4612C88.1848 76.018 88.9521 75.6328 100.649 71.1493C105.327 69.3586 112.241 66.6834 116.021 65.2079C123.693 62.2044 126.902 61.5958 132.037 62.1694C135.9 62.5984 140.268 64.5993 143.525 67.4277C144.855 68.5836 147.457 72.0338 150.561 76.7449C153.622 81.3946 156.46 85.16 158.06 86.6924L160.636 89.1574L163.884 88.9341C165.671 88.8116 167.184 88.6714 167.245 88.6189C167.306 88.5664 167.529 87.1478 167.738 85.4665C168.318 80.8255 170.428 77.2396 173.505 75.6634C174.469 75.1687 179.02 73.3122 183.62 71.5302C188.219 69.7526 195.316 66.968 199.392 65.348C206.359 62.5765 207.056 62.3839 210.976 62.2088C215.898 61.9855 219.132 62.5765 222.594 64.3191C226.901 66.4908 229.342 69.0784 234.722 77.1652C237.469 81.2896 240.647 85.6942 241.785 86.9464L243.86 89.2319L247.33 89.3501L250.8 89.4683L251.306 86.1714C251.585 84.3588 252.23 82.0602 252.736 81.0663C254.445 77.7037 256.154 76.7405 272.28 70.0591C291.348 62.1562 291.815 62.0117 297.7 62.235C301.824 62.3926 302.605 62.559 305.573 63.947C310.029 66.0267 313.216 69.2053 318.6 76.9463C322.65 82.7694 323.312 83.4963 327.532 86.7362L332.097 90.2345L343.807 85.5891C353.864 81.6004 355.874 80.9437 358.014 80.9437C359.383 80.9437 361.136 81.2108 361.907 81.5348C366.18 83.3299 369.109 90.2695 367.68 95.2083C366.319 99.9019 365.639 100.335 349.143 107.043C333.047 113.593 331.116 114.092 327.075 112.744C325.906 112.35 323.57 110.997 321.891 109.731C314.502 104.171 312.475 102.739 312.278 102.936C311.991 103.225 306.864 119.998 306.86 120.66C306.855 120.953 310.875 124.464 315.783 128.466C324.908 135.901 326.565 137.494 327.611 139.819C327.942 140.55 329.298 145.459 330.628 150.734C331.953 156.006 333.139 160.476 333.252 160.669C333.37 160.857 334.198 160.695 335.092 160.305C336.09 159.868 337.982 159.583 339.992 159.57C342.721 159.552 343.676 159.749 345.76 160.774C349.705 162.714 352.181 166.304 352.548 170.608C352.67 172.096 352.918 172.849 353.232 172.714C359.898 169.841 366.319 171.168 370.186 176.216C373.539 180.595 373.992 186.23 371.407 191.501C369.907 194.557 367.627 196.808 364.436 198.393L362.439 199.378L331.487 199.5C330 199.509 328.583 199.514 327.227 199.518C302.387 199.623 298.746 199.64 296.606 197.85C296.122 197.443 295.712 196.948 295.154 196.335C293.842 194.907 293.332 193.922 293.101 192.377C292.399 187.666 295.263 183.625 299.923 182.744C301.393 182.469 301.489 182.337 301.981 179.934C302.927 175.328 306.336 171.466 310.561 170.214C311.638 169.894 312.523 169.447 312.523 169.215C312.523 168.883 308.795 154.828 307.897 151.768C307.683 151.05 293.567 139.403 292.325 138.926C291.898 138.76 290.799 141.325 288.323 148.243C282.437 164.671 282.59 164.32 280.428 166.321C278.03 168.546 275.876 169.491 273.291 169.469C272.21 169.461 264.99 167.862 257.252 165.919C249.51 163.975 243.088 162.381 242.975 162.381C242.861 162.381 242.77 167.311 242.77 173.34C242.77 185.266 242.6 186.304 240.241 188.8C237.896 191.282 236.187 191.808 230.982 191.646C226.557 191.506 226.164 191.418 224.386 190.166C223.348 189.43 222.01 187.955 221.408 186.882L220.318 184.929L220.1 167.403L219.882 149.876L213.945 144.088C210.679 140.905 207.811 138.3 207.567 138.3C207.322 138.3 205.09 143.764 202.605 150.445C199.759 158.094 197.596 163.235 196.764 164.334C194.906 166.785 192.382 168.432 189.583 169.014C187.216 169.509 187.02 169.465 174.761 165.765C167.93 163.703 162.28 162.074 162.206 162.144C162.136 162.219 162.48 166.317 162.968 171.26C164.08 182.451 164.089 184.303 163.029 186.37C161.002 190.332 158.225 191.716 152.309 191.716C147.706 191.716 145.709 191.129 143.66 189.176C141.223 186.847 141.131 186.383 139.423 167.635L137.81 149.903L133.725 146.028C126.937 139.583 124.173 137.262 123.802 137.683C123.61 137.902 121.431 143.55 118.959 150.231C113.998 163.651 113.239 164.96 109.281 166.939C105.976 168.594 103.7 168.445 95.8489 166.072C92.2087 164.973 89.1657 164.132 89.0916 164.211C89.0175 164.29 89.423 165.73 89.9941 167.416C90.5957 169.189 91.0403 171.523 91.0447 172.955L91.0578 175.424L93.7825 174.557C100.496 172.416 108.082 175.577 111.055 181.746L112.018 183.751L115.397 183.515C118.279 183.318 119.042 183.423 120.611 184.224C126.479 187.232 126.427 196.072 120.52 198.765ZM146.511 188.301C147.697 188.953 148.804 189.071 152.819 188.979C157.336 188.879 157.776 188.791 158.857 187.775C160.54 186.195 161.246 184.588 161.246 182.346C161.246 178.528 159.42 161.286 158.988 161.019C158.748 160.87 156.359 160.1 153.687 159.312C148.072 157.652 146.01 156.492 144.427 154.093C142.888 151.75 142.701 149.662 143.595 144.688C144.658 138.751 146.276 136.619 150.535 135.524L152.628 134.99L144.51 127.179C140.05 122.879 136.406 119.044 136.414 118.654C136.423 118.26 137.679 113.606 139.209 108.308C141.275 101.137 142.169 98.6366 142.71 98.5271C143.154 98.4395 145.142 100.051 147.871 102.722C153.268 107.993 154.489 108.527 161.107 108.527H165.606L165.61 106.229C165.61 104.963 165.902 101.469 166.26 98.457C166.617 95.4447 166.909 92.6382 166.909 92.2179C166.914 91.548 166.447 91.4517 163.16 91.4517H159.411L156.281 88.4044C154.119 86.2984 151.886 83.378 149.053 78.9515C146.799 75.427 144.131 71.6266 143.124 70.5057C139.3 66.2544 133.659 64.0302 127.687 64.4198C124.06 64.6519 123.14 64.9365 113.073 68.9208C109.237 70.44 102.484 73.0714 98.0679 74.7702C89.5712 78.0321 87.8579 79.1223 86.2928 82.2572C85.2116 84.4201 81.6717 106.938 82.0728 109.088C82.7354 112.625 86.8595 114.968 91.7204 114.565C96.7034 114.149 97.7192 112.424 99.5894 101.207C100.378 96.5043 101.202 92.4719 101.425 92.2486C102 91.6706 114.172 87.0734 115.122 87.0734C115.585 87.0734 115.907 87.393 115.907 87.8527C115.907 90.1075 99.9207 143.046 98.9093 144.136C98.7262 144.338 97.911 144.307 97.1045 144.075C96.2979 143.843 89.2704 141.741 81.4886 139.412C66.6356 134.959 65.9948 134.854 63.0695 136.373C61.4172 137.232 60.6369 138.944 59.8653 143.396C59.3552 146.317 59.3159 147.521 59.6952 148.663C60.9813 152.582 64.6608 154.495 70.9123 154.504C76.7541 154.513 79.8058 155.524 83.9779 158.834C85.9004 160.362 87.3086 160.927 94.6195 163.081C103.687 165.756 105.693 166.015 108.06 164.811C111.696 162.954 111.657 163.033 118.344 144.867C122.058 134.775 122.625 133.484 123.349 133.484C123.545 133.484 127.421 136.925 131.959 141.133L140.216 148.777L140.491 151.969C141.027 158.191 142.932 179.715 143.176 182.333C143.464 185.393 144.458 187.175 146.511 188.301ZM225.724 188.095C227.01 188.957 227.764 189.089 231.435 189.089C235.106 189.089 235.86 188.957 237.146 188.095C239.993 186.186 240.154 185.38 240.154 172.832V161.615L236.348 160.651C234.251 160.126 231.801 159.281 230.903 158.773C228.92 157.652 227.128 155.17 226.788 153.072C226.491 151.216 227.734 143.488 228.606 141.794C229.569 139.92 231.614 138.449 234.077 137.858L236.331 137.315L219.608 120.502L222.725 110.244C224.438 104.604 226.116 99.7049 226.452 99.3546C226.984 98.8029 227.655 99.3021 231.54 103.124C237.063 108.562 237.347 108.676 245.325 108.575C248.171 108.536 248.917 108.4 248.742 107.941C248.62 107.621 248.956 103.873 249.488 99.6173C250.024 95.3615 250.364 91.7801 250.246 91.6662C250.129 91.548 248.25 91.4517 246.061 91.4517H242.09L239.444 88.2774C237.987 86.5304 234.901 82.1828 232.586 78.61C230.267 75.0373 227.398 71.1669 226.208 70.0022C222.228 66.1055 216.486 64.0039 210.954 64.4111C207.767 64.6475 206.267 65.151 191.763 70.856C186.131 73.0758 180.071 75.4138 178.305 76.0531C174.002 77.6205 171.517 79.8141 170.641 82.8307C169.564 86.5261 167.651 106.802 168.235 108.343C169.438 111.531 171.836 112.906 176.2 112.906C178.824 112.906 179.705 112.722 180.908 111.916C183.249 110.349 183.79 108.659 184.814 99.7705C185.324 95.3178 185.891 91.513 186.074 91.3203C186.697 90.6548 199.288 86.1495 199.885 86.3772C200.212 86.5042 200.482 86.815 200.482 87.0646C200.482 87.3142 199.292 91.5086 197.836 96.3817C196.38 101.255 194.104 108.891 192.779 113.343C191.454 117.796 188.842 126.172 186.976 131.951C185.106 137.731 183.445 143.085 183.284 143.852C183.123 144.618 182.726 145.463 182.403 145.73C181.963 146.098 178.436 145.2 167.89 142.039C159.917 139.648 153.181 137.862 152.135 137.862C149.851 137.862 147.932 138.83 147.13 140.388C146.795 141.045 146.193 143.309 145.801 145.419C144.964 149.92 145.299 151.938 147.178 153.703C148.935 155.345 149.175 155.441 160.375 158.817C166.011 160.52 174.212 163.003 178.602 164.334C182.987 165.669 187.011 166.759 187.539 166.755C189.562 166.75 191.942 165.748 193.577 164.207C195.124 162.753 195.757 161.339 200.286 149.246C203.037 141.899 205.452 135.598 205.657 135.235C205.862 134.872 206.328 134.578 206.699 134.578C207.074 134.578 210.827 137.897 215.048 141.951L222.716 149.325V166.689C222.716 186.054 222.72 186.081 225.724 188.095ZM26.5889 196.221C27.936 196.886 31.999 196.952 73.3144 196.961C112.925 196.97 118.728 196.886 119.844 196.304C123.292 194.513 123.292 188.48 119.844 186.689C118.192 185.827 114.482 185.836 112.812 186.702C111.247 187.517 109.804 187.171 109.804 185.98C109.804 183.388 106.765 179.338 103.482 177.565C102.101 176.816 101.015 176.624 98.251 176.637C94.5323 176.659 92.5662 177.359 89.872 179.64C88.7995 180.547 88.4421 180.647 87.8579 180.209C87.2039 179.719 87.1996 179.496 87.8274 177.486C89.9853 170.538 85.9702 162.044 78.8729 158.541C76.6844 157.464 75.9956 157.35 71.6578 157.346C67.3157 157.346 66.6095 157.464 64.203 158.58C59.4511 160.787 55.5624 165.695 54.3853 170.975C54.0889 172.315 53.5831 173.515 53.2605 173.638C52.9423 173.764 51.787 173.038 50.6971 172.031C48.3561 169.859 46.621 169.062 43.4254 168.686C38.3335 168.086 33.381 170.743 31.1141 175.297C29.8018 177.937 29.6841 179.019 30.1332 184.474C30.2334 185.687 30.1201 185.792 28.2934 186.107C22.9312 187.044 21.7846 193.844 26.5889 196.221ZM299.226 196.352C300.272 196.821 306.55 196.939 330.833 196.948L361.131 196.961L363.329 195.932C371.089 192.307 372.876 181.921 366.707 176.335C364.423 174.268 362.33 173.602 358.978 173.87C355.944 174.115 354.187 174.898 351.802 177.061C350.32 178.406 350.067 178.497 349.321 177.946C348.524 177.359 348.524 177.276 349.234 176.054C351.27 172.578 350.189 167.709 346.701 164.623C339.735 158.467 328.47 164.084 327.062 174.421C326.905 175.546 326.517 176.571 326.19 176.694C325.867 176.821 324.912 176.313 324.062 175.564C321.146 172.99 319.197 172.245 315.356 172.245C312.588 172.245 311.489 172.447 310.033 173.226C306.332 175.196 304.584 177.924 304.401 182.031C304.331 183.568 304.165 184.929 304.035 185.065C303.899 185.196 302.862 185.266 301.728 185.218C297.857 185.056 295.215 187.823 295.638 191.597C295.878 193.738 297.151 195.424 299.226 196.352ZM253.128 141.632C259.781 143.348 265.326 144.775 265.457 144.806C265.941 144.929 282.211 90.4972 281.927 89.7179C281.827 89.4508 272.65 92.7521 271.661 93.4088C271.608 93.4438 271.164 96.9115 270.671 101.11C269.598 110.3 269.341 111.338 267.589 113.466C265.535 115.957 263.452 116.846 259.681 116.837C255.713 116.824 253.59 115.918 251.232 113.221L249.479 111.224L243.62 111.08C236.54 110.905 235.389 110.436 230.746 105.839L227.66 102.783L225.401 110.213C224.163 114.298 223.039 118.199 222.908 118.886C222.69 120.029 223.418 120.879 231.849 129.324L241.03 138.514L253.128 141.632ZM179.774 143.081C180.773 143.497 181.3 143.304 181.3 142.525C181.3 142.232 182.896 137.07 184.845 131.058C188.572 119.569 197.435 90.0112 197.221 89.7879C197.112 89.6741 188.751 92.7302 188.341 93.0323C188.258 93.0936 187.818 96.3598 187.369 100.287C186.384 108.851 186.087 110.007 184.321 112.152C182.211 114.718 179.927 115.703 176.195 115.664C172.529 115.625 169.782 114.512 167.951 112.323L166.787 110.935H160.854C155.16 110.935 154.829 110.887 152.527 109.67C151.211 108.974 148.708 107.017 146.969 105.327C145.229 103.637 143.699 102.363 143.564 102.494C143.433 102.63 142.33 106.259 141.118 110.559L138.917 118.378L145.831 125.077C158.356 137.214 156.364 135.936 168.44 139.57C174.194 141.303 179.295 142.884 179.774 143.081ZM319.201 59.2709C312.444 61.0397 305.521 59.0126 300.59 53.8199C296.859 49.8925 295.093 45.593 295.093 40.444C295.093 35.2426 296.859 31 300.699 26.9544C305.818 21.5603 313.333 19.6163 320.501 21.8405C323.626 22.8125 327.781 25.6277 329.573 27.9964C335.999 36.4992 335.144 47.6377 327.519 54.6342C324.66 57.2656 322.689 58.3602 319.201 59.2709ZM148.652 59.052C147.361 59.2928 145.988 59.4679 145.6 59.4373C136.319 58.7586 128.772 52.0817 127.229 43.1761C126.008 36.1533 129.274 28.3948 135.137 24.3887C142.806 19.139 152.458 19.9578 158.879 26.4027C163.422 30.9693 165.584 38.1585 164.159 43.9598C163.186 47.9135 161.879 50.4354 159.354 53.2157C156.939 55.8777 152.392 58.3558 148.652 59.052ZM236.954 58.1894C234.107 59.1921 230.049 59.5555 227.511 59.0345C226.435 58.8112 224.142 57.9355 222.424 57.0817C218.679 55.2297 215.954 52.3881 213.897 48.1849C212.523 45.3828 212.471 45.0851 212.484 40.015C212.497 34.9886 212.558 34.6208 213.901 31.8625C215.71 28.1365 219.481 24.4806 223.461 22.5892C226.208 21.28 226.749 21.1793 230.999 21.1793C235.241 21.1793 235.79 21.28 238.506 22.5717C250.212 28.1409 253.394 42.9835 244.945 52.6071C242.657 55.2166 239.879 57.1562 236.954 58.1894ZM142.5 56.2542C145.67 56.9635 146.664 56.9635 149.258 56.2674C155.662 54.5511 159.925 50.3303 161.504 44.1525C163.457 36.486 159.838 28.5963 152.75 25.0804C149.585 23.5086 149.467 23.4867 145.256 23.6706C141.729 23.8282 140.591 24.0603 138.795 24.9973C135.163 26.8931 133.084 29.021 131.288 32.6769C129.727 35.8512 129.64 36.2408 129.653 40.2032C129.662 44.0036 129.788 44.6472 131.061 47.2786C133.302 51.9153 137.369 55.1071 142.5 56.2542ZM227.917 56.4206L228.161 56.4644C229.43 56.6789 230.062 56.784 230.69 56.7796C231.352 56.7752 232.015 56.6439 233.41 56.3856C239.718 55.2122 244.605 50.7988 246.432 44.6122C248.834 36.4904 244.313 27.471 236.322 24.4456C232.717 23.0795 226.958 23.3641 223.658 25.0673C220.445 26.7267 217.672 29.6558 216.033 33.1322C214.777 35.7942 214.651 36.4466 214.664 40.2251C214.673 43.9992 214.803 44.6516 216.072 47.2786C218.304 51.9021 223.104 55.6018 227.917 56.4206ZM373.87 162.144C370.853 163.489 369.162 163.664 365.434 163.003C361.615 162.333 360.212 161.628 358.18 159.369C356.763 157.797 356.362 156.864 355.538 153.252C355.412 152.687 355.482 151.137 355.695 149.811C358.184 134.465 378.705 133.002 381.438 147.976C381.913 150.586 381.874 151.159 381.028 153.952C379.904 157.683 377.366 160.581 373.87 162.144ZM364.728 160.06C368.277 161.304 370.522 161.151 373.604 159.465C376.869 157.683 379.224 153.917 379.224 150.48C379.224 142.994 371.865 137.958 365.199 140.879C361.197 142.634 358.324 147.087 358.306 151.558C358.289 156.203 359.933 158.383 364.728 160.06ZM391.212 184.754C389.085 185.967 387.467 186.098 385.527 185.205C380.636 182.959 379.537 177.197 383.361 173.826C385.82 171.659 389.621 171.461 392.049 173.375C395.681 176.247 395.223 182.46 391.212 184.754ZM61.6178 92.4937C60.9857 93.1286 58.492 93.203 37.5139 93.1899C22.4298 93.1811 13.8416 93.0191 13.3489 92.7302C12.9304 92.485 12.586 91.8983 12.586 91.4254C12.586 90.5848 13.0132 90.5716 37.2915 90.6811C55.2267 90.7643 62.0407 90.9307 62.1584 91.2897C62.2499 91.5655 62.0058 92.1084 61.6178 92.4937ZM40.2691 136.33V138.519L20.3111 138.633C2.84678 138.733 0.322606 138.663 0.104629 138.085C-0.0348763 137.722 -0.0348763 137.127 0.104629 136.763C0.322606 136.185 2.84678 136.115 20.3111 136.216L40.2691 136.33ZM59.1546 114.547L59.0151 115.751L40.8707 115.865C25.1894 115.966 22.6522 115.892 22.1857 115.322C21.8893 114.963 21.7585 114.368 21.898 114.005C22.116 113.431 24.5442 113.343 40.7225 113.343H59.2898L59.1546 114.547ZM385.724 182.399C387.472 183.581 387.991 183.62 389.743 182.709C392.163 181.453 392.782 177.981 390.938 175.993C388.701 173.581 384.564 174.723 383.749 177.972C383.326 179.666 384.036 181.256 385.724 182.399ZM367.64 39.9756C367.1 40.5141 365.944 40.663 362.239 40.663C358.272 40.663 357.36 40.5316 356.51 39.8398C355.612 39.113 355.556 38.881 356.013 37.8696C356.537 36.7224 356.537 36.7224 361.907 36.7224C367.427 36.7224 368.325 36.9764 368.325 38.5307C368.325 38.9466 368.015 39.5946 367.64 39.9756ZM355.202 18.5742C353.023 20.4876 351.07 22.1163 350.869 22.1907C350.407 22.3659 348.707 20.6802 348.707 20.0454C348.707 19.3054 355.774 12.681 356.885 12.3745C357.43 12.2256 358.167 12.3482 358.52 12.646C359.928 13.8194 359.253 15.0234 355.202 18.5742ZM333.836 11.2186C333.4 12.392 331.665 12.554 330.798 11.5032C330.314 10.9209 330.397 9.94014 331.29 5.48299L332.358 0.163314L333.78 0.0275861C334.782 -0.0731158 335.279 0.0976403 335.476 0.609906C335.755 1.34109 334.508 9.41475 333.836 11.2186Z" fill="var(--md-sys-color-on-primary-container)"/>
<path d="M225.724 188.095C222.72 186.081 222.716 186.054 222.716 166.689V149.325L215.048 141.951C210.828 137.897 207.074 134.578 206.699 134.578C206.329 134.578 205.862 134.872 205.657 135.235C205.452 135.598 203.037 141.899 200.286 149.246C195.757 161.339 195.125 162.753 193.577 164.207C191.942 165.748 189.562 166.75 187.539 166.755C187.011 166.759 182.988 165.669 178.602 164.334C174.212 163.003 166.012 160.52 160.375 158.817C149.175 155.441 148.935 155.345 147.178 153.703C145.299 151.938 144.964 149.92 145.801 145.419C146.193 143.309 146.795 141.045 147.13 140.388C147.932 138.83 149.851 137.862 152.135 137.862C153.181 137.862 159.917 139.648 167.89 142.039C178.436 145.2 181.963 146.098 182.403 145.73C182.726 145.463 183.123 144.618 183.284 143.852C183.445 143.085 185.106 137.731 186.977 131.951C188.842 126.172 191.454 117.796 192.779 113.343C194.104 108.891 196.38 101.255 197.836 96.3817C199.292 91.5086 200.482 87.3142 200.482 87.0646C200.482 86.815 200.212 86.5042 199.885 86.3772C199.288 86.1495 186.698 90.6548 186.074 91.3203C185.891 91.513 185.324 95.3178 184.814 99.7705C183.79 108.659 183.249 110.349 180.908 111.916C179.705 112.722 178.824 112.906 176.2 112.906C171.836 112.906 169.438 111.531 168.235 108.343C167.651 106.802 169.565 86.526 170.641 82.8307C171.518 79.8141 174.003 77.6205 178.305 76.0531C180.071 75.4138 186.131 73.0758 191.763 70.856C206.268 65.151 207.767 64.6475 210.954 64.411C216.486 64.0039 222.228 66.1055 226.208 70.0022C227.398 71.1668 230.267 75.0373 232.586 78.61C234.901 82.1827 237.988 86.5304 239.444 88.2774L242.09 91.4517H246.061C248.25 91.4517 250.129 91.548 250.247 91.6662C250.364 91.7801 250.024 95.3615 249.488 99.6173C248.956 103.873 248.621 107.621 248.743 107.941C248.917 108.4 248.171 108.536 245.325 108.575C237.347 108.676 237.063 108.562 231.54 103.124C227.655 99.302 226.984 98.8029 226.452 99.3546C226.117 99.7048 224.438 104.604 222.725 110.244L219.608 120.502L236.331 137.315L234.077 137.858C231.614 138.449 229.569 139.92 228.606 141.794C227.734 143.488 226.491 151.216 226.788 153.072C227.128 155.17 228.92 157.652 230.903 158.773C231.801 159.281 234.251 160.126 236.348 160.651L240.154 161.615V172.832C240.154 185.38 239.993 186.186 237.146 188.095C235.86 188.957 235.106 189.089 231.435 189.089C227.764 189.089 227.01 188.957 225.724 188.095ZM227.917 56.4206C223.104 55.6018 218.304 51.9021 216.072 47.2786C214.804 44.6516 214.673 43.9992 214.664 40.2251C214.651 36.4466 214.777 35.7942 216.033 33.1322C217.672 29.6558 220.445 26.7267 223.658 25.0673C226.958 23.3641 232.717 23.0795 236.322 24.4456C244.313 27.471 248.834 36.4904 246.432 44.6122C244.605 50.7988 239.718 55.2122 233.41 56.3856C232.015 56.6439 231.352 56.7752 230.69 56.7796C230.062 56.784 229.43 56.6789 228.161 56.4644L227.917 56.4206Z" fill="var(--md-sys-color-primary)"/>
<path d="M146.511 188.301C144.458 187.175 143.464 185.393 143.176 182.333C142.932 179.715 141.027 158.191 140.491 151.969L140.216 148.777L131.959 141.133C127.421 136.925 123.545 133.484 123.349 133.484C122.626 133.484 122.059 134.775 118.344 144.867C111.657 163.033 111.696 162.954 108.06 164.811C105.693 166.015 103.688 165.756 94.6198 163.081C87.3089 160.927 85.9007 160.362 83.9782 158.834C79.8061 155.524 76.7544 154.513 70.9126 154.504C64.661 154.495 60.9816 152.582 59.6955 148.663C59.3162 147.521 59.3555 146.317 59.8655 143.396C60.6372 138.944 61.4175 137.232 63.0698 136.373C65.995 134.854 66.6359 134.959 81.4889 139.412C89.2706 141.741 96.2982 143.843 97.1047 144.075C97.9113 144.307 98.7265 144.338 98.9096 144.136C99.921 143.046 115.907 90.1076 115.907 87.8527C115.907 87.393 115.585 87.0734 115.123 87.0734C114.172 87.0734 102.001 91.6706 101.425 92.2486C101.203 92.4719 100.379 96.5043 99.5897 101.207C97.7194 112.424 96.7037 114.149 91.7207 114.565C86.8598 114.968 82.7357 112.625 82.073 109.088C81.672 106.938 85.2119 84.4201 86.2931 82.2572C87.8582 79.1223 89.5714 78.0321 98.0682 74.7702C102.484 73.0714 109.237 70.4401 113.074 68.9208C123.14 64.9365 124.06 64.6519 127.687 64.4198C133.66 64.0302 139.301 66.2544 143.124 70.5057C144.131 71.6266 146.799 75.427 149.053 78.9515C151.887 83.378 154.119 86.2984 156.281 88.4044L159.411 91.4517H163.161C166.448 91.4517 166.914 91.548 166.91 92.2179C166.91 92.6382 166.618 95.4447 166.26 98.457C165.903 101.469 165.611 104.963 165.611 106.229L165.606 108.527H161.107C154.489 108.527 153.269 107.993 147.872 102.722C145.143 100.051 143.155 98.4395 142.71 98.5271C142.169 98.6366 141.276 101.137 139.209 108.308C137.679 113.606 136.423 118.26 136.415 118.654C136.406 119.044 140.051 122.879 144.51 127.179L152.628 134.99L150.535 135.524C146.276 136.619 144.659 138.751 143.595 144.688C142.701 149.662 142.889 151.75 144.428 154.093C146.01 156.492 148.072 157.652 153.687 159.312C156.36 160.1 158.749 160.87 158.988 161.019C159.42 161.286 161.247 178.528 161.247 182.346C161.247 184.588 160.54 186.195 158.858 187.775C157.776 188.791 157.336 188.879 152.82 188.979C148.805 189.071 147.697 188.953 146.511 188.301ZM142.501 56.2542C137.369 55.1071 133.302 51.9153 131.061 47.2786C129.788 44.6472 129.662 44.0036 129.653 40.2032C129.64 36.2408 129.727 35.8512 131.288 32.6769C133.084 29.021 135.164 26.8931 138.795 24.9973C140.591 24.0603 141.729 23.8282 145.256 23.6706C149.467 23.4867 149.585 23.5086 152.75 25.0805C159.839 28.5963 163.457 36.486 161.504 44.1525C159.926 50.3303 155.662 54.5511 149.258 56.2674C146.664 56.9635 145.67 56.9635 142.501 56.2542Z" fill="var(--md-sys-color-surface-container-high)"/>
</svg>
