<svg viewBox="0 0 1181 623" fill="none" xmlns="http://www.w3.org/2000/svg">
<path d="M275.11 541.267C263.826 540.418 252.542 538.771 241.458 536.225C219.988 531.384 198.568 544.86 193.675 566.373C188.832 587.886 202.363 609.249 223.883 614.14C238.762 617.485 254.04 619.781 269.268 620.879C270.217 620.979 271.266 620.979 272.214 620.979C292.935 620.979 310.46 605.006 312.008 583.993C313.656 562.031 297.128 542.864 275.11 541.267Z" fill="currentColor"/>
<path d="M25.7146 251.671C30.408 253.468 35.2012 254.316 39.9945 254.316C56.0714 254.316 71.2 244.534 77.2918 228.661C83.9823 211.191 92.9201 194.421 103.704 178.948C116.336 160.879 111.942 135.972 93.8182 123.344C75.7434 110.716 50.8291 115.109 38.1968 133.227C23.6179 154.041 11.6848 176.551 2.64804 200.161C-5.24077 220.676 5.09384 243.786 25.7146 251.671Z" fill="currentColor"/>
<path d="M77.4388 394.118C69.5001 373.503 46.2332 363.271 25.8117 371.257C5.19083 379.193 -4.995 402.303 2.94379 422.868C12.0807 446.477 24.0632 468.888 38.6434 489.652C46.3824 500.733 58.8144 506.622 71.347 506.622C79.2358 506.622 87.2245 504.276 94.2149 499.335C112.29 486.657 116.683 461.75 103.951 443.731C93.1664 428.458 84.2285 411.687 77.4388 394.118Z" fill="currentColor"/>
<path d="M232.674 87.055C235.57 87.055 238.566 86.7555 241.561 86.1066C252.596 83.611 263.929 81.914 275.213 81.0654C297.233 79.4182 313.758 60.3015 312.111 38.2892C310.463 16.277 290.79 -0.243407 269.371 1.45348C254.093 2.55157 238.765 4.79768 223.935 8.19171C202.416 13.0333 188.885 34.3964 193.728 55.909C197.922 74.4764 214.4 87.055 232.674 87.055Z" fill="currentColor"/>
<path d="M562.496 541.267C443.415 532.083 350.101 430.959 350.101 311.164C350.101 191.323 443.418 90.2494 562.496 81.0621C584.515 79.3651 600.941 60.1986 599.244 38.1863C597.546 16.2239 578.723 -0.346365 556.354 1.45019C395.879 13.7787 270.208 149.839 270.208 311.158C270.208 472.477 395.879 608.535 556.303 620.917C557.352 621.017 558.4 621.017 559.399 621.017C580.07 621.017 597.545 605.144 599.192 584.181C600.94 562.169 584.465 542.964 562.496 541.267Z" fill="currentColor"/>
<path d="M869.26 0C697.6 0 557.958 139.61 557.958 311.164C557.958 482.77 697.613 622.329 869.26 622.329C1040.87 622.329 1180.52 482.77 1180.52 311.164C1180.52 139.559 1040.87 0 869.26 0ZM869.26 542.455C741.691 542.455 637.845 438.685 637.845 311.152C637.845 183.618 741.697 79.8483 869.26 79.8483C996.829 79.8483 1100.64 183.618 1100.64 311.152C1100.64 438.685 996.834 542.455 869.26 542.455Z" fill="currentColor"/>
<path d="M980.206 256.706L884.842 189.323C864.371 174.849 837.958 173.102 815.64 184.581C793.421 196.111 779.641 218.822 779.641 243.778V378.443C779.641 403.449 793.471 426.161 815.64 437.64C825.326 442.681 835.911 445.127 846.395 445.127C859.926 445.127 873.357 441.034 884.891 432.849L980.254 365.466C997.929 352.988 1008.46 332.624 1008.46 311.011C1008.46 289.449 997.88 269.184 980.206 256.706ZM859.527 353.088V269.234L918.893 311.161L859.527 353.088Z" fill="currentColor"/>
</svg>
