<svg viewBox="0 0 772 773" fill="none" xmlns="http://www.w3.org/2000/svg">
<path d="M84.7373 4.4707C87.7011 3.88196 90.7467 3.84519 93.7207 4.36035L94.3145 4.4707L94.3301 4.47363L94.3447 4.47754C94.8621 4.58453 95.3175 4.72593 95.6357 4.8291C96.0068 4.94939 96.149 5.00125 96.3379 5.05566C96.9418 5.21065 97.5399 5.38691 98.1299 5.58789L98.7529 5.80957L98.9092 5.86816L99.0605 5.93945C99.7933 6.28363 100.507 6.66664 101.201 7.08301C101.4 7.19111 101.524 7.24744 101.903 7.44141C102.221 7.60388 102.664 7.83793 103.127 8.15234H103.126C104.289 8.92735 105.383 9.79991 106.396 10.7607L106.83 11.1826L106.836 11.1875L168.199 72.5205L168.224 72.5449L168.248 72.5703C172.703 77.1804 175.168 83.3558 175.112 89.7656C175.056 96.1754 172.484 102.307 167.95 106.839C163.416 111.371 157.282 113.94 150.871 113.996C144.46 114.052 138.283 111.588 133.671 107.136L133.646 107.112L133.621 107.088L114.001 87.4766V580.471C114.001 586.954 111.424 593.172 106.838 597.756C102.252 602.34 96.0318 604.915 89.5469 604.915C83.0618 604.915 76.8412 602.34 72.2549 597.756C67.6688 593.172 65.0918 586.954 65.0918 580.471V87.4795L45.4932 107.077L45.4424 107.126C40.8301 111.578 34.6533 114.042 28.2422 113.986C21.8309 113.931 15.6973 111.36 11.1631 106.828C6.62888 102.296 4.0567 96.1647 4.00098 89.7549C3.9453 83.3452 6.41063 77.1706 10.8652 72.5605L10.8896 72.5352L10.9141 72.5107L72.2773 11.1768L72.2832 11.1719C73.4261 10.0337 74.6787 9.01051 76.0225 8.11816L76.0322 8.1123C76.4817 7.81583 76.9133 7.59007 77.2148 7.43652C77.5647 7.25836 77.7066 7.19151 77.8779 7.09668C78.5852 6.67341 79.3128 6.28458 80.0596 5.93555L80.1943 5.87305L80.334 5.82031C81.0983 5.53023 81.8773 5.28063 82.667 5.06934C82.9118 4.99096 83.9265 4.63895 84.707 4.47754L84.7217 4.47363L84.7373 4.4707Z" fill="currentColor" stroke="currentColor" stroke-width="8"/>
<path d="M682.065 597.09C688.275 597.036 694.267 599.346 698.828 603.538L699.266 603.95L699.315 603.999L760.679 665.332L760.682 665.335C761.825 666.481 762.853 667.737 763.749 669.085H763.748C764.112 669.633 764.572 670.533 764.709 670.803C765.693 672.357 766.4 674.07 766.801 675.864C766.888 676.129 767.147 676.909 767.307 677.567L767.378 677.885V677.889C768.007 681.047 768.007 684.297 767.378 687.455V687.458C767.217 688.263 766.798 689.483 766.773 689.568C766.57 690.347 766.331 691.117 766.052 691.873L766.003 692.005L765.945 692.134C765.581 692.94 765.172 693.725 764.722 694.485L764.435 695.041C764.296 695.313 764.072 695.745 763.769 696.196C762.873 697.544 761.846 698.801 760.702 699.946L760.699 699.95L699.335 761.283C697.23 763.449 694.744 765.205 692.002 766.464L691.446 766.711C688.463 767.992 685.255 768.666 682.008 768.694C678.761 768.723 675.541 768.104 672.535 766.875C669.53 765.646 666.8 763.831 664.504 761.536C662.208 759.241 660.392 756.512 659.162 753.508C657.933 750.504 657.314 747.285 657.342 744.039C657.37 740.793 658.045 737.585 659.326 734.603L659.573 734.047C660.833 731.306 662.59 728.821 664.757 726.717L684.372 707.111H191.137C184.652 707.111 178.432 704.536 173.846 699.952C169.26 695.368 166.683 689.151 166.683 682.667C166.683 676.183 169.26 669.965 173.846 665.381C178.432 660.797 184.652 658.222 191.137 658.222H684.38L664.735 638.564L664.711 638.54L664.689 638.516C660.234 633.906 657.768 627.731 657.823 621.321C657.879 614.912 660.452 608.78 664.986 604.248C669.521 599.716 675.653 597.146 682.065 597.09Z" fill="currentColor" stroke="currentColor" stroke-width="8"/>
<path d="M89.546 658.222C103.05 658.222 114.001 669.164 114.001 682.667C114.001 696.169 103.05 707.111 89.546 707.111C76.0422 707.111 65.0919 696.169 65.0919 682.667C65.092 669.165 76.0423 658.222 89.546 658.222Z" fill="currentColor" stroke="currentColor" stroke-width="8"/>
<path d="M261.183 153C275.818 153 287.683 164.864 287.683 179.5C287.683 194.136 275.818 206 261.183 206C246.547 206 234.683 194.136 234.683 179.5C234.683 164.864 246.547 153 261.183 153Z" fill="currentColor" stroke="currentColor" stroke-width="8"/>
<path d="M374.683 153C389.511 153 401.683 164.782 401.683 179.5C401.683 194.218 389.511 206 374.683 206C359.854 206 347.683 194.218 347.683 179.5C347.683 164.782 359.854 153 374.683 153Z" fill="currentColor" stroke="currentColor" stroke-width="8"/>
<path d="M487.683 153C502.511 153 514.683 164.782 514.683 179.5C514.683 194.218 502.511 206 487.683 206C472.854 206 460.683 194.218 460.683 179.5C460.683 164.782 472.854 153 487.683 153Z" fill="currentColor" stroke="currentColor" stroke-width="8"/>
<path d="M601.183 153C615.818 153 627.683 164.864 627.683 179.5C627.683 194.136 615.818 206 601.183 206C586.547 206 574.683 194.136 574.683 179.5C574.683 164.864 586.547 153 601.183 153Z" fill="currentColor" stroke="currentColor" stroke-width="8"/>
<path d="M261.183 266C275.818 266 287.683 277.864 287.683 292.5C287.683 307.136 275.818 319 261.183 319C246.547 319 234.683 307.136 234.683 292.5C234.683 277.864 246.547 266 261.183 266Z" fill="currentColor" stroke="currentColor" stroke-width="8"/>
<path d="M374.683 266C389.511 266 401.683 277.782 401.683 292.5C401.683 307.218 389.511 319 374.683 319C359.854 319 347.683 307.218 347.683 292.5C347.683 277.782 359.854 266 374.683 266Z" fill="currentColor" stroke="currentColor" stroke-width="8"/>
<path d="M487.683 266C502.511 266 514.683 277.782 514.683 292.5C514.683 307.218 502.511 319 487.683 319C472.854 319 460.683 307.218 460.683 292.5C460.683 277.782 472.854 266 487.683 266Z" fill="currentColor" stroke="currentColor" stroke-width="8"/>
<path d="M601.183 266C615.818 266 627.683 277.864 627.683 292.5C627.683 307.136 615.818 319 601.183 319C586.547 319 574.683 307.136 574.683 292.5C574.683 277.864 586.547 266 601.183 266Z" fill="currentColor" stroke="currentColor" stroke-width="8"/>
<path d="M261.183 379C275.818 379 287.683 390.864 287.683 405.5C287.683 420.136 275.818 432 261.183 432C246.547 432 234.683 420.136 234.683 405.5C234.683 390.864 246.547 379 261.183 379Z" fill="currentColor" stroke="currentColor" stroke-width="8"/>
<path d="M374.683 379C389.511 379 401.683 390.782 401.683 405.5C401.683 420.218 389.511 432 374.683 432C359.854 432 347.683 420.218 347.683 405.5C347.683 390.782 359.854 379 374.683 379Z" fill="currentColor" stroke="currentColor" stroke-width="8"/>
<path d="M487.683 379C502.511 379 514.683 390.782 514.683 405.5C514.683 420.218 502.511 432 487.683 432C472.854 432 460.683 420.218 460.683 405.5C460.683 390.782 472.854 379 487.683 379Z" fill="currentColor" stroke="currentColor" stroke-width="8"/>
<path d="M601.183 379C615.818 379 627.683 390.864 627.683 405.5C627.683 420.136 615.818 432 601.183 432C586.547 432 574.683 420.136 574.683 405.5C574.683 390.864 586.547 379 601.183 379Z" fill="currentColor" stroke="currentColor" stroke-width="8"/>
<path d="M261.183 492C275.901 492 287.683 504.172 287.683 519C287.683 533.828 275.901 546 261.183 546C246.465 546 234.683 533.828 234.683 519C234.683 504.172 246.465 492 261.183 492Z" fill="currentColor" stroke="currentColor" stroke-width="8"/>
<path d="M374.683 492C389.594 492 401.683 504.088 401.683 519C401.683 533.912 389.594 546 374.683 546C359.771 546 347.683 533.912 347.683 519C347.683 504.088 359.771 492 374.683 492Z" fill="currentColor" stroke="currentColor" stroke-width="8"/>
<path d="M487.683 492C502.594 492 514.683 504.088 514.683 519C514.683 533.912 502.594 546 487.683 546C472.771 546 460.683 533.912 460.683 519C460.683 504.088 472.771 492 487.683 492Z" fill="currentColor" stroke="currentColor" stroke-width="8"/>
<path d="M601.183 492C615.901 492 627.683 504.172 627.683 519C627.683 533.828 615.901 546 601.183 546C586.465 546 574.683 533.828 574.683 519C574.683 504.172 586.465 492 601.183 492Z" fill="currentColor" stroke="currentColor" stroke-width="8"/>
</svg>
