<svg viewBox="0 0 950 950" fill="none" xmlns="http://www.w3.org/2000/svg">
<path d="M475 171.5C642.332 171.5 778.5 307.63 778.5 475C778.5 642.37 642.332 778.5 475 778.5C307.668 778.5 171.5 642.37 171.5 475C171.5 307.63 307.668 171.5 475 171.5ZM475 208.714C328.202 208.714 208.714 328.167 208.714 475C208.714 621.833 328.202 741.286 475 741.286C621.798 741.286 741.286 621.833 741.286 475C741.286 328.167 621.798 208.714 475 208.714Z" fill="currentColor" stroke="currentColor" stroke-width="13"/>
<path d="M475.197 313.111C480.236 313.111 485.407 313.349 490.656 314.065L490.655 314.066C498.159 315.072 504.181 320.82 505.595 328.225H505.596C505.598 328.234 505.599 328.242 505.6 328.251C505.601 328.256 505.603 328.262 505.604 328.267H505.603C507.037 335.752 503.501 343.246 496.958 346.964L496.945 346.97L496.931 346.978C469.745 362.286 452.853 391.266 452.853 422.635C452.853 470.64 491.898 509.709 539.943 509.709C564.462 509.709 587.93 499.322 604.267 481.217C609.461 475.441 617.741 473.779 624.734 476.997L631.975 480.33L631.177 482.079C634.06 485.712 635.486 490.435 634.848 495.283L634.85 495.284C624.704 575.568 556.084 636.111 475.197 636.111C386.278 636.111 314 563.634 314 474.611C314 385.555 386.311 313.111 475.197 313.111ZM438.731 353.831C387.039 369.515 349.291 417.724 349.291 474.604C349.291 544.191 405.784 600.777 475.198 600.777H476.597C522.544 600.267 563.297 574.72 584.801 536.505C570.66 542.085 555.459 545.039 539.941 545.039C472.48 545.039 417.569 490.136 417.569 422.637C417.569 397.662 425.184 373.78 438.731 353.831Z" fill="currentColor" stroke="currentColor" stroke-width="16"/>
<path d="M475 5.5C485.618 5.5 494.5 13.8726 494.5 24.5752V86.4248C494.5 97.1373 485.566 105.5 475 105.5C464.434 105.5 455.5 97.1378 455.5 86.4248V24.5752C455.5 13.873 464.382 5.5 475 5.5Z" fill="currentColor" stroke="currentColor" stroke-width="11"/>
<path d="M475 844.5C485.566 844.5 494.5 852.862 494.5 863.575V925.425C494.5 936.127 485.618 944.5 475 944.5C464.382 944.5 455.5 936.127 455.5 925.425V863.575C455.5 852.863 464.434 844.5 475 844.5Z" fill="currentColor" stroke="currentColor" stroke-width="11"/>
<path d="M240.044 68.0479C249.143 62.8345 260.776 65.8473 266.062 75.0479L296.947 128.783L296.948 128.785C302.202 137.933 299.083 149.617 290 154.909L289.999 154.908C287.017 156.656 283.703 157.5 280.447 157.5C273.922 157.5 267.48 154.065 263.949 147.932L263.946 147.927L233.061 94.1523L233.062 94.1514C227.811 85.0486 230.88 73.3548 240.021 68.0605L240.032 68.0537L240.044 68.0479Z" fill="currentColor" stroke="currentColor" stroke-width="11"/>
<path d="M660.037 795.027C669.032 789.876 680.462 792.85 685.839 801.633L686.09 802.056L686.098 802.069L716.947 855.789C722.203 864.937 719.082 876.619 709.998 881.91L709.997 881.909C707.015 883.656 703.701 884.5 700.445 884.5C694.125 884.5 687.88 881.278 684.285 875.501L683.942 874.93L653.053 821.168C647.797 812.02 650.918 800.339 660.002 795.048L660.02 795.037L660.037 795.027Z" fill="currentColor" stroke="currentColor" stroke-width="11"/>
<path d="M68.0645 239.997C73.4015 230.882 85.0416 227.81 94.1855 233.06L147.97 263.938L147.976 263.94L147.982 263.944C157.108 269.216 160.216 280.89 154.912 289.988L154.906 289.999L154.905 289.998C151.371 296.03 144.974 299.5 138.378 299.5C135.14 299.5 131.834 298.653 128.837 296.94L128.827 296.935L75.043 266.057L75.0361 266.054L75.0303 266.05C65.9011 260.777 62.8122 249.16 68.0391 240.041L68.0518 240.02L68.0645 239.997Z" fill="currentColor" stroke="currentColor" stroke-width="11"/>
<path d="M795.07 660.039C800.28 651.056 811.642 647.905 820.752 652.8L821.185 653.039L821.19 653.042L821.197 653.046L874.97 683.887L874.976 683.891L874.982 683.894C884.131 689.173 887.188 700.789 881.934 709.96L881.92 709.984L881.905 710.009C878.37 716.035 871.974 719.5 865.381 719.5C862.144 719.5 858.839 718.654 855.843 716.943L855.833 716.938L802.061 686.098L802.044 686.088L802.026 686.077C792.964 680.792 789.756 669.165 795.071 660.039H795.07Z" fill="currentColor" stroke="currentColor" stroke-width="11"/>
<path d="M86.4248 455.5C96.9396 455.5 105.5 463.969 105.5 474.5C105.5 485.02 96.9505 493.5 86.4648 493.5H24.5752C14.1109 493.5 5.5 485.041 5.5 474.5C5.5 463.959 14.1105 455.5 24.5752 455.5H86.4248Z" fill="currentColor" stroke="currentColor" stroke-width="11"/>
<path d="M925.431 455.5C935.894 455.5 944.5 463.961 944.5 474.5C944.5 485.039 935.894 493.5 925.431 493.5H863.569C853.055 493.5 844.5 485.029 844.5 474.5C844.5 463.961 853.106 455.5 863.569 455.5H925.431Z" fill="currentColor" stroke="currentColor" stroke-width="11"/>
<path d="M128.83 653.021C137.956 647.836 149.573 650.892 154.911 659.957L154.922 659.975L154.932 659.992C160.227 669.137 157.065 680.794 147.957 686.057L147.95 686.061L147.943 686.065L94.1504 716.936L94.1494 716.935C91.1653 718.665 87.8541 719.5 84.6035 719.5C78.0836 719.5 71.6214 716.097 68.0713 709.98L68.0684 709.976C62.7727 700.831 65.9355 689.174 75.043 683.911L75.0488 683.907L75.0557 683.903L128.809 653.033L128.819 653.026L128.83 653.021Z" fill="currentColor" stroke="currentColor" stroke-width="11"/>
<path d="M855.831 233.017C864.944 227.842 876.629 230.876 881.931 240.024L882.173 240.455C887.128 249.529 883.921 260.902 874.956 266.079L874.949 266.083L874.943 266.087L821.219 296.919L821.22 296.92C818.228 298.661 814.905 299.5 811.644 299.5C805.095 299.5 798.628 296.107 795.072 289.986L795.069 289.981C789.771 280.839 792.936 269.186 802.044 263.927L802.054 263.921L855.807 233.031L855.819 233.024L855.831 233.017Z" fill="currentColor" stroke="currentColor" stroke-width="11"/>
<path d="M263.949 802.074C269.16 793.098 280.488 789.86 289.586 794.825L290.017 795.067L290.03 795.075C299.123 800.373 302.185 812.059 296.938 821.156L296.938 821.157L266.053 874.928L266.047 874.939L266.04 874.951C262.527 880.998 256.152 884.5 249.553 884.5C246.298 884.5 243.034 883.658 240.121 882.058L240.049 882.018L239.979 881.977C230.938 876.654 227.781 864.986 233.059 855.854L263.937 802.096L263.943 802.085L263.949 802.074Z" fill="currentColor" stroke="currentColor" stroke-width="11"/>
<path d="M683.908 75.0693C689.122 66.0961 700.452 62.8634 709.55 67.8232L709.981 68.0654L709.999 68.0752L710.017 68.0859C719.059 73.4057 722.222 85.0699 716.939 94.2021L686.047 147.934L686.033 147.957C682.518 154.002 676.14 157.5 669.542 157.5C666.304 157.5 663.002 156.646 660.011 154.924L659.999 154.918L659.988 154.911C650.888 149.614 647.829 137.933 653.03 128.844L653.034 128.837L683.895 75.0938L683.901 75.0811L683.908 75.0693Z" fill="currentColor" stroke="currentColor" stroke-width="11"/>
</svg>
