<svg width="479" height="256" viewBox="0 0 479 256" fill="none" xmlns="http://www.w3.org/2000/svg">
<path d="M351.285 205.791C341.097 208.376 331.452 207.278 318.618 202.07C317.07 201.443 316.565 201.482 314.735 202.369C307.203 206.019 297.969 205.681 292.855 201.571L290.697 199.835L286.615 200.495C280.614 201.465 271.796 200.944 267.775 199.38C263.637 197.772 259.461 193.845 258.618 190.761C256.859 184.344 259.267 178.703 264.569 176.818C266.427 176.158 267.409 175.409 268.035 174.177C269.189 171.898 271.518 170.789 274.99 170.866L277.836 170.933L278.507 168.648C280.842 160.667 287.947 155.159 296.688 154.56C298.9 154.41 300.709 154.111 300.709 153.889C300.709 153.673 300.215 153.052 299.616 152.508C296.649 149.824 290.969 138.493 288.9 131.138C285.528 119.152 286.41 104.849 291.285 92.5801C297.004 78.1819 308.407 66.0077 321.208 60.6333C325.667 58.7642 333.776 56.6178 334.841 57.0282C335.44 57.2556 334.963 58.376 332.894 61.6483C331.385 64.0277 329.35 68.3371 328.363 71.2379C326.726 76.041 326.571 77.0948 326.582 83.1625C326.593 88.8252 326.815 90.478 328.052 94.2551C330.459 101.587 334.68 107.633 340.293 111.781L342.439 113.362L344.624 111.493C347.386 109.125 350.736 108.215 353.715 109.025C361.563 111.155 364.103 120.057 358.601 126.146C357.531 127.333 355.795 128.587 354.746 128.931C352.461 129.685 352.251 131.221 353.953 134.738C356.676 140.373 366.133 145.891 375.307 147.2C380.387 147.927 381.125 147.91 381.38 147.084C381.496 146.701 382.522 142.774 383.659 138.348C384.824 133.828 386.166 129.84 386.726 129.241C387.37 128.559 389.172 127.938 391.779 127.5C394.003 127.128 406.061 125.026 418.568 122.824C431.075 120.628 442.395 118.786 443.726 118.742C448.046 118.592 448.058 119.069 444.075 133.634C442.084 140.911 440.875 145.442 437.398 158.592C436.344 162.558 435.035 167.494 434.475 169.563C433.92 171.632 433.11 173.662 432.672 174.078C432.234 174.488 428.762 175.492 424.946 176.307C421.13 177.123 416.017 178.26 413.576 178.836C411.136 179.408 407.703 180.162 405.95 180.506C404.197 180.85 402.761 181.277 402.761 181.449C402.761 181.621 403.199 182.098 403.731 182.503C404.408 183.013 406.671 183.246 411.152 183.257C418.462 183.273 418.651 183.373 419.195 187.35C420.132 194.155 414.652 199.513 406.815 199.463C404.414 199.447 403.171 199.691 402.689 200.273C402.312 200.733 400.736 201.77 399.189 202.58C396.632 203.922 395.839 204.055 390.282 204.033C385.124 204.011 383.449 203.767 379.466 202.447C376.876 201.593 373.338 200.179 371.613 199.313C368.535 197.76 368.451 197.749 367.176 198.748C364.397 200.927 356.277 204.527 351.285 205.791ZM81.4516 179.391C79.9929 181.831 78.745 183.817 78.6896 183.8C78.6286 183.784 76.8926 182.907 74.8349 181.854C71.8121 180.301 71.0911 179.679 71.0911 178.62C71.0911 177.899 71.4794 176.984 71.9619 176.59C72.7716 175.913 74.4189 173.168 74.4189 172.486C74.4189 172.319 74.0584 172.181 73.6202 172.181C73.1765 172.181 71.9175 171.648 70.8249 171.005C68.8504 169.84 68.7838 169.84 65.6724 170.816C62.9879 171.659 61.9952 171.72 58.9613 171.199C55.4838 170.6 55.3617 170.622 53.4039 172.159C49.161 175.475 43.6257 175.791 38.1515 173.018L35.029 171.443L32.1671 172.78C28.0073 174.727 24.6518 174.555 21.3406 172.22C18.9502 170.534 18.6063 170.445 16.715 171.016C5.84979 174.266 -4.05594 163.323 1.6845 154.405C4.0195 150.772 5.88861 149.28 8.55084 148.925C10.7195 148.631 10.9191 148.459 11.2186 146.668C11.6845 143.917 13.0434 141.56 15.3118 139.563C17.2918 137.827 21.8287 136.13 24.4632 136.135C26.8315 136.135 30.2203 137.272 32.0894 138.681C34.2857 140.334 34.3412 140.328 36.6596 138.409L38.5509 136.84L37.3806 134.943C36.7372 133.9 35.395 130.683 34.3911 127.794C32.6773 122.83 32.5775 122.114 32.583 114.776C32.583 106.701 32.9103 104.843 35.4505 98.4148C38.8615 89.7958 46.1826 81.676 54.3967 77.3998C70.5975 68.975 91.6957 72.8962 103.354 86.5013C106.316 89.9567 109.394 94.8485 110.747 98.2484C111.635 100.473 111.796 100.583 114.264 100.744C116.715 100.9 116.859 100.999 117.02 102.658C117.137 103.895 116.87 104.632 116.116 105.159C115.268 105.753 114.979 106.795 114.757 110.068C114.236 117.594 112.705 125.143 110.653 130.262L108.656 135.259L110.98 137.322C113.737 139.768 118.762 142.697 120.952 143.135C122.378 143.418 122.561 143.262 123.099 141.316C126.549 128.786 127.841 124.643 128.495 123.978C129.244 123.218 131.435 122.763 148.74 119.74C149.926 119.53 151.08 119.33 152.195 119.136C183.87 113.601 188.606 112.774 189.444 114.216C189.621 114.521 189.627 114.926 189.677 115.409C189.771 116.429 187.17 126.463 183.41 139.535C176.144 164.821 175.623 166.867 174.419 167.411C174.241 167.494 174.047 167.544 173.809 167.627C172.988 167.932 164.596 169.691 155.173 171.532C145.745 173.373 137.885 175.104 137.702 175.375C137.519 175.653 136.371 175.864 135.151 175.847C133.931 175.836 130.065 176.402 126.554 177.111C123.043 177.821 118.679 178.531 116.848 178.692C115.023 178.859 112.955 179.363 112.256 179.818C110.537 180.95 107.469 180.522 95.2342 177.455C89.7545 176.08 85.0068 174.954 84.6907 174.954C84.3745 174.954 82.9158 176.951 81.4516 179.391ZM332.683 205.192C337.342 206.163 346.782 205.908 351.518 204.682C355.29 203.706 360.759 201.332 365.007 198.825C366.582 197.899 368.357 197.139 368.956 197.139C369.555 197.139 372.356 198.115 375.173 199.308C385.384 203.628 393.132 204.272 399.2 201.305C400.897 200.473 402.422 199.447 402.583 199.019C402.794 198.47 403.914 198.249 406.444 198.249C410.093 198.249 413.277 197.278 415.14 195.592C417.73 193.251 419.023 188.448 417.714 186.008C417.203 185.048 416.505 184.937 410.964 184.937C406.654 184.937 404.525 184.715 403.914 184.205C402.694 183.185 398.568 181.948 397.852 182.392C397.525 182.591 393.193 183.612 388.224 184.654C383.254 185.697 377.192 186.978 374.752 187.5L370.315 188.454L352.289 179.957C342.373 175.281 333.942 171.166 333.554 170.811C333.16 170.456 332.783 168.97 332.722 167.505L332.6 164.849L329.289 165.192C327.425 165.387 324.458 166.246 322.495 167.167L319.006 168.798L318.207 166.895C316.987 163.978 312.733 159.79 309.25 158.082C296.993 152.081 281.502 158.576 279.683 170.473C279.4 172.319 279.072 172.946 278.49 172.774C278.052 172.641 276.499 172.425 275.04 172.303C271.823 172.02 269.904 173.102 268.762 175.83C268.146 177.311 267.647 177.727 266.504 177.727C264.702 177.727 261.613 180.007 260.498 182.164C259.455 184.177 259.422 188.842 260.431 191.194C261.535 193.773 264.447 196.307 268.263 198.021C272.5 199.929 281.086 200.461 287.103 199.197L290.964 198.387L292.971 200.001C295.711 202.203 300.148 203.795 303.548 203.795C306.893 203.795 312.25 202.491 315.307 200.933L317.492 199.818L321.163 201.471C325.595 203.473 327.708 204.155 332.683 205.192ZM318.529 164.804C319.377 166.185 319.943 166.596 320.603 166.307C324.031 164.804 327.625 163.889 331.213 163.595C336.122 163.19 346.815 161.188 347.492 160.545C347.747 160.295 346.876 159.918 345.551 159.702C339.422 158.692 330.964 155.004 324.835 150.667C319.738 147.056 315.329 142.231 317.131 142.231C317.32 142.231 319.4 144.039 321.757 146.252C328.751 152.813 338.002 157.206 348.751 159.069C350.276 159.33 350.631 159.125 351.801 157.317C353.271 155.043 355.417 154.399 357.619 155.575C358.49 156.041 360.065 156.135 362.583 155.875C365.612 155.564 366.394 155.658 366.921 156.374C367.497 157.167 368.096 157.139 373.26 156.036C379.344 154.743 379.638 154.527 380.309 150.955L380.698 148.886L378.279 148.881C372.456 148.859 364.491 145.847 358.396 141.36C354.663 138.609 353.277 136.695 351.907 132.386C351.385 130.761 350.648 129.474 350.226 129.474C348.817 129.474 345.223 127.311 343.776 125.592C342.983 124.649 342.073 122.902 341.751 121.709C341.069 119.169 340.509 118.709 338.668 119.169C337.752 119.402 337.314 119.901 337.314 120.711C337.314 122.874 335.101 126.546 332.872 128.093C327.009 132.153 318.629 129.086 316.776 122.197L316.155 119.901L312.594 120.267C310.381 120.495 309.028 120.423 309.028 120.084C309.028 119.535 311.047 119.064 314.552 118.803C316.249 118.676 316.521 118.437 316.854 116.784C317.298 114.616 318.717 112.547 320.886 110.933C322.045 110.062 323.454 109.74 326.749 109.591C331.052 109.397 331.102 109.413 333.277 111.371C334.48 112.464 335.917 114.36 336.471 115.586C337.392 117.622 337.669 117.827 339.555 117.827C341.363 117.827 341.663 117.638 341.929 116.302C342.145 115.242 341.951 114.577 341.302 114.111C332.694 108.015 327.636 100.068 325.878 89.879C324.918 84.3272 325.151 78.8696 326.588 73.1791C327.531 69.4575 330.514 62.6855 332.356 60.1009L333.559 58.4092L331.419 58.7975C324.624 60.0288 313.737 65.4808 308.557 70.2395C296.804 81.0438 290.276 94.0277 288.479 110.19C287.009 123.423 291.33 139.08 299.516 150.162C302.506 154.205 303.354 154.987 304.769 154.993C308.235 155.009 315.811 160.417 318.529 164.804ZM70.8138 153.329C72.4222 155.043 72.5942 155.093 75.9164 154.793C79.6158 154.455 85.5171 152.93 85.5004 152.314C85.4949 152.109 83.9031 150.994 81.9619 149.835C76.7428 146.729 66.9813 136.684 69.1832 136.684C69.3551 136.684 71.4572 138.742 73.8476 141.26C76.6097 144.166 79.9319 146.917 82.9436 148.798L87.6857 151.765L91.6846 149.63C99.8321 145.292 107.12 136.512 110.176 127.361C111.385 123.756 112.289 119.491 111.845 119.491C111.729 119.491 110.708 120.112 109.588 120.877C104.813 124.116 99.5437 123.895 95.1122 120.267C93.0379 118.57 92.5276 117.705 91.4738 114.111C90.1593 109.652 89.5548 109.042 87.2475 109.851C85.8554 110.345 85.7999 110.528 85.9719 113.728C86.2215 118.276 85.2952 121.327 82.8493 124.044C80.3091 126.862 77.1754 128.337 73.709 128.354C67.5858 128.382 63.5647 124.898 61.6901 117.938C60.8249 114.721 59.4161 114.1 54.8737 114.948C52.816 115.331 51.2353 115.387 50.9302 115.081C50.4644 114.616 51.4904 114.233 56.2547 113.085C57.242 112.846 57.7799 112.353 57.7799 111.676C57.7799 111.049 58.2736 110.534 59.0279 110.367C62.0617 109.718 75.8332 107.217 81.9064 106.213C98.3402 103.501 106.649 101.998 109.255 101.255L110.537 100.888L108.301 96.4625C105.362 90.6389 102.694 87.2335 97.9797 83.2734C90.4699 76.9672 82.8881 74.3161 72.4777 74.3549C66.5265 74.3771 65.3118 74.5546 60.9635 76.0743C54.1915 78.4314 50.4533 80.7831 45.2342 85.9744C41.5514 89.6406 40.2647 91.4043 38.1626 95.6805C34.5963 102.941 33.6867 106.779 33.6867 114.499C33.6867 121.964 34.6185 126.102 37.6801 132.247C39.3995 135.697 39.943 136.357 40.8637 136.13C43.4205 135.492 49.7766 135.925 51.5348 136.862C55.8665 139.164 59.9763 144.632 59.9929 148.115C59.9985 149.125 60.4311 149.341 63.0989 149.652C66.7705 150.084 68.5675 150.938 70.8138 153.329ZM115.134 176.956C115.295 177.383 115.622 177.727 115.861 177.727C116.21 177.727 155.634 170.001 169.882 167.139C171.59 166.795 173.31 166.318 173.698 166.08C174.086 165.841 177.004 156.696 180.176 145.758C187.93 119.03 188.839 115.553 188.229 114.943C187.725 114.438 186.427 114.632 158.723 119.43C132.86 123.911 130.265 124.421 129.566 125.137C128.856 125.869 126.227 134.804 120.215 156.928C118.473 163.334 116.549 170.29 115.944 172.38C115.334 174.477 114.968 176.535 115.134 176.956ZM374.214 182.192C374.292 182.319 374.314 182.43 374.38 182.508C374.613 182.791 375.39 182.63 381.585 181.332C382.389 181.166 383.282 180.977 384.275 180.772C415.284 174.3 430.919 170.938 431.99 170.506C432.744 170.201 433.426 169.214 433.787 167.91C434.408 165.675 440.492 142.791 443.199 132.525C446.005 121.887 446.261 120.617 445.711 120.101C445.406 119.813 442.772 120.051 439.367 120.678C436.161 121.266 428.551 122.597 422.45 123.634C416.349 124.677 406.987 126.313 401.652 127.267C396.316 128.221 391.147 129.141 390.165 129.308C389.189 129.474 388.035 130.018 387.608 130.511C387.176 131.011 385.417 136.906 383.693 143.617C381.973 150.328 379.061 161.632 377.226 168.742C375.39 175.847 374.036 181.898 374.214 182.192ZM41.8454 173.04C43.1377 173.44 44.7516 173.789 45.4338 173.806C47.4083 173.867 52.2669 171.804 53.9474 170.19C55.334 168.859 55.6612 168.781 57.2697 169.341C59.9042 170.256 63.8532 170.079 66.3989 168.92C73.354 165.764 74.2525 157.117 68.1072 152.525C66.9702 151.676 65.6169 151.354 62.8715 151.266C60.836 151.199 58.9835 151.138 58.7616 151.127C58.5453 151.116 58.5065 150.384 58.684 149.507C59.0611 147.6 57.5415 143.884 55.2675 141.194C50.9469 136.08 41.202 135.858 35.9996 140.755L34.4577 142.203L31.9785 140.312C24.6019 134.677 13.2597 139.08 12.4111 147.905L12.1615 150.539L10.0927 150.212C8.25134 149.918 7.76881 150.112 5.6834 152.02C2.69948 154.738 1.66786 156.712 1.66786 159.735C1.66786 162.957 2.16148 164.388 3.90303 166.268C7.10325 169.713 12.2003 170.866 17.3806 169.313C19.3773 168.72 19.649 168.775 21.0467 170.079C23.1543 172.048 24.674 172.735 26.8925 172.735C28.9336 172.735 32.5165 171.46 33.0933 170.528C33.6479 169.63 35.3673 169.868 37.5193 171.133C38.6063 171.776 40.5586 172.636 41.8454 173.04ZM184.513 198.365C182.445 199.829 181.502 200.101 178.035 200.262C173.997 200.45 172.866 200.179 168.629 198.021C166.71 197.045 166.482 197.039 163.914 197.927C156.693 200.428 147.137 199.125 142.439 194.993C140.614 193.384 139.122 189.79 139.15 187.067C139.183 184.183 141.208 179.541 142.594 179.169C145.872 178.287 163.021 175.963 164.84 176.158C166.05 176.285 166.893 175.708 169.205 173.179C177.342 164.277 188.107 165.47 190.498 175.531C191.108 178.077 191.28 178.282 192.827 178.282C199 178.282 203.92 183.579 202.799 189.003C201.618 194.721 194.757 198.814 189.017 197.228C187.126 196.707 186.726 196.806 184.513 198.365ZM173.321 198.559C174.596 198.958 176.283 199.302 177.065 199.319C179.128 199.374 183.415 197.799 184.513 196.585C185.34 195.669 186.044 195.575 189.976 195.814C193.992 196.063 194.741 195.952 196.665 194.815C200.925 192.297 202.456 188.099 200.564 184.116C199.156 181.144 196.904 179.951 192.694 179.946H189.228V177.71C189.228 166.89 175.966 165.348 169.189 175.387C168.213 176.829 167.37 178.077 167.309 178.16C167.248 178.243 166.565 178.071 165.794 177.777C164.791 177.4 161.341 177.677 153.687 178.759L142.982 180.267L141.718 182.741C138.656 188.725 141.707 194.538 149.139 196.873C152.927 198.065 161.108 197.777 164.669 196.324C166.959 195.387 167.059 195.392 169.011 196.601C170.109 197.278 172.051 198.16 173.321 198.559ZM322.8 127.794C326.776 129.896 331.052 128.814 334.164 124.926C337.303 120.988 336.166 114.826 331.74 111.815C330.143 110.733 329.294 110.556 326.632 110.744C323.066 110.994 321.169 112.092 319.1 115.104C318.03 116.668 317.841 117.533 318.019 120.084C318.274 123.739 319.81 126.219 322.8 127.794ZM348.457 127.638C351.064 128.554 352.45 128.515 355.09 127.455C357.808 126.368 359.805 123.512 360.315 119.99C360.592 118.06 360.398 117.039 359.389 115.087C357.531 111.499 355.667 110.339 351.735 110.339C348.085 110.339 346.266 111.338 344.059 114.549C341.23 118.676 343.681 125.963 348.457 127.638ZM351.596 178.121C361.663 182.93 369.921 186.551 370.875 186.568C371.79 186.585 377.78 185.459 384.186 184.067C390.587 182.674 398.573 180.944 401.929 180.217C427.414 174.721 431.923 173.667 432.284 173.101C432.972 172.026 432.761 171.537 431.74 171.831C431.208 171.981 424.159 173.523 416.072 175.248C407.985 176.973 396.261 179.496 390.004 180.855C383.748 182.22 376.76 183.468 374.475 183.634L370.315 183.933L356.726 177.444C354.846 176.546 353.121 175.719 351.541 174.965C337.209 168.11 334.486 166.806 334.031 167.361C333.925 167.489 333.942 167.722 333.964 168.01C333.975 168.143 333.986 168.293 333.986 168.448C333.986 169.546 336.144 170.733 351.596 178.121ZM116.743 70.6832C112.622 74.4991 109.089 77.666 108.889 77.7326C108.69 77.7936 107.297 76.7675 105.8 75.442L103.066 73.0349L105.772 69.2246C112.256 60.1064 116.116 55.1536 116.754 55.1536C117.747 55.1536 124.347 61.97 124.286 62.935C124.258 63.3843 120.864 66.8674 116.743 70.6832ZM111.086 151.532C110.964 152.292 113.443 152.064 118.179 150.883C120.42 150.323 120.675 150.073 121.341 147.799C121.74 146.44 122.017 145.303 121.956 145.281C117.375 143.523 113.759 141.382 110.037 138.226C109.033 137.378 108.035 136.684 107.819 136.69C107.597 136.69 106.804 137.627 106.05 138.77C105.295 139.912 102.827 142.647 100.559 144.843L96.4322 148.847L97.7412 149.907C98.6119 150.611 100.365 151.088 102.955 151.327C106.682 151.676 106.898 151.632 107.874 150.29C108.44 149.519 109.228 148.886 109.627 148.886C110.42 148.886 111.269 150.417 111.086 151.532ZM76.3823 63.4398C75.8665 64.2772 70.1538 64.1885 69.5991 63.3344C69.0889 62.5468 66.765 41.3599 67.1477 40.9827C67.2808 40.8441 69.8321 40.7331 72.8105 40.7331H78.2292L77.9463 45.8635C77.4361 55.1757 76.7539 62.8408 76.3823 63.4398ZM42.2503 73.0681C42.2503 73.4619 41.1632 74.8485 39.8265 76.1575L37.4083 78.5313L29.0057 71.2379L20.5974 63.9445L22.6884 61.5706C25.1399 58.7864 28.0461 56.2628 28.8004 56.2628C29.5159 56.2628 42.2503 72.1696 42.2503 73.0681ZM24.1804 110.478C23.9308 111.715 23.8365 111.726 14.2968 111.726C6.88695 111.726 4.52976 111.554 4.04723 110.977C3.37612 110.167 3.81428 100.245 4.54085 99.7959C4.75716 99.6627 9.46598 100.467 15.0012 101.587L25.0678 103.617L24.7516 106.424C24.5797 107.966 24.319 109.79 24.1804 110.478ZM370.038 182.319C372.239 183.146 372.517 182.891 373.077 179.496L373.476 177.1L371.596 177.455C370.104 177.733 368.479 177.278 363.637 175.209C360.293 173.784 356.31 171.97 354.785 171.188L352.012 169.757L354.048 169.169C356.954 168.321 357.07 167.938 354.536 167.533C352.095 167.145 350.714 165.636 350.509 163.129C350.437 162.314 350.37 161.643 350.359 161.643C349.749 161.643 334.846 165.032 334.669 165.215C334.353 165.531 365.606 180.645 370.038 182.319ZM140.908 111.382C137.675 112.025 123.498 111.776 122.783 111.06C122.406 110.683 122.117 108.886 122.117 106.94V103.484L125.306 102.874C127.059 102.536 130.742 101.776 133.487 101.194C134.33 101.011 135.09 100.844 135.778 100.694C139.982 99.7848 141.341 99.4908 141.845 100.012C142.167 100.345 142.139 101.016 142.284 102.07C142.478 103.501 142.639 106.102 142.639 107.849C142.639 110.972 142.605 111.038 140.908 111.382ZM108.529 176.097C112.866 177.855 113.404 177.694 114.081 174.466L114.474 172.591L112.428 172.974C111.307 173.185 110.093 173.118 109.732 172.83C108.895 172.153 93.6702 166.08 92.816 166.08C92.4611 166.08 92.1671 165.841 92.1671 165.547C92.1671 165.065 93.415 164.627 97.8465 163.556C100.176 162.996 99.0889 162.197 95.9941 162.197C93.2597 162.197 91.0967 160.933 90.4367 158.953C90.2647 158.437 88.268 158.648 82.2281 159.818L74.247 161.366L77.5248 162.708C84.3191 165.492 95.9331 170.484 100.209 172.464C102.65 173.595 106.393 175.231 108.529 176.097ZM102.705 177.932C109.072 179.424 110.109 179.569 110.642 179.036C111.208 178.465 80.3867 164.815 74.5576 163.057C73.4871 162.73 73.3096 162.885 73.3096 164.1C73.3096 165.631 75.0401 167.744 76.2936 167.744C77.1699 167.744 78.6119 169.286 78.1571 169.735C77.6857 170.212 73.4372 167.866 72.7938 166.779C72.2614 165.88 72.1283 165.913 71.1077 167.189C69.7544 168.892 69.7101 169.408 70.9081 169.408C71.4183 169.408 72.2281 169.729 72.7106 170.129C74.5243 171.615 82.5886 173.617 91.3352 174.754C92.5554 174.915 94.3024 175.387 95.2176 175.808C96.1327 176.224 99.5049 177.184 102.705 177.932ZM368.235 175.991C369.999 176.657 373.443 176.257 374.059 175.32C374.292 174.965 374.425 174.177 374.358 173.567C374.286 172.957 374.425 172.148 374.663 171.77C375.345 170.667 376.627 165.309 376.322 164.815C376.166 164.571 376.288 164.067 376.582 163.701C377.27 162.846 379.189 156.745 378.867 156.424C378.662 156.219 376.871 156.551 370.104 158.077L368.784 158.371L370.026 159.535C370.714 160.173 371.724 161.698 372.273 162.924C373.188 164.971 373.199 165.265 372.395 166.485C371.74 167.489 371.202 167.738 370.226 167.494C369.195 167.233 368.928 167.394 368.928 168.254C368.928 169.524 367.947 170.278 366.582 170.057C366.055 169.968 365.074 170.412 364.397 171.038C362.805 172.525 362.594 172.491 361.064 170.528C359.916 169.069 359.533 168.92 357.691 169.214C356.549 169.402 355.617 169.735 355.617 169.957C355.617 170.755 365.307 174.377 366.71 174.105C367.475 173.956 367.786 173.983 367.403 174.161C366.288 174.693 366.599 175.375 368.235 175.991ZM70.3035 61.6705C70.4255 62.092 71.4683 62.3638 72.9602 62.3638H75.4172L75.7389 58.62C75.9164 56.5623 76.2215 51.9422 76.4156 48.3593L76.7705 41.8424H72.5442C69.5326 41.8424 68.3179 42.0421 68.3124 42.5357C68.3124 43.7559 70.0983 60.9495 70.3035 61.6705ZM106.66 74.3604C107.314 75.0371 107.686 75.5418 108.163 75.6694C109.117 75.919 110.47 74.6378 115.262 70.1175C115.761 69.6405 116.305 69.1303 116.893 68.5812L122.921 62.9018L116.715 56.6954L115.262 58.559C114.469 59.5851 111.807 63.1513 109.355 66.4847L104.896 72.5468L106.66 74.3604ZM29.9541 70.3726C33.7145 73.5951 36.9591 76.2296 37.1643 76.2296C37.3695 76.224 38.2846 75.6195 39.1998 74.8763C40.6363 73.7171 40.7749 73.3843 40.2037 72.447C39.0168 70.4947 28.8448 57.9267 28.451 57.9267C27.7189 57.9267 22.7106 63.3677 22.9103 63.9445C23.0267 64.2606 26.1937 67.1558 29.9541 70.3726ZM259.627 114.71C259.272 116.119 258.684 117.272 258.329 117.272C257.969 117.272 257.37 116.124 256.993 114.721C256.144 111.543 253.892 109.236 250.842 108.415C247.935 107.627 248.141 106.779 251.479 105.808C254.463 104.937 256.127 103.101 257.042 99.6849C257.797 96.8619 258.873 96.5956 259.411 99.1081C260.27 103.107 262.156 104.91 267.015 106.402C268.662 106.906 268.091 107.771 265.678 108.42C262.644 109.241 260.42 111.549 259.627 114.71ZM4.918 109.646C5.04557 109.874 9.10547 110.062 13.9308 110.062C22.5664 110.062 22.7161 110.04 23.0434 108.814C23.7588 106.141 23.4482 104.549 22.1449 104.255C17.7965 103.279 9.46044 101.776 7.58578 101.632L5.36726 101.465L5.02339 105.348C4.82927 107.483 4.78489 109.419 4.918 109.646ZM389.206 40.8718C388.862 42.4469 387.902 42.9295 387.553 41.7037C385.911 35.991 384.719 34.4935 380.992 33.4896C378.191 32.7298 378.368 31.5983 381.424 30.7442C384.464 29.8956 386.543 27.6106 387.026 24.6045C387.486 21.7093 388.59 21.8479 389.45 24.9206C390.37 28.204 392.151 30.0288 395.24 30.8607C398.335 31.6871 398.468 32.5856 395.628 33.4342C391.785 34.5878 390.171 36.4569 389.206 40.8718ZM123.609 109.707C123.82 109.918 127.874 110.023 132.622 109.935L141.252 109.785L141.075 105.636C140.98 103.351 140.814 101.399 140.708 101.293C140.548 101.133 128.468 103.401 124.474 104.344C123.426 104.588 123.226 105.004 123.226 106.978C123.226 108.271 123.398 109.496 123.609 109.707ZM108.312 170.805C111.651 172.647 114.924 172.053 115.201 169.568C115.262 169.019 115.567 167.955 115.883 167.189C116.205 166.413 116.244 165.581 115.977 165.292C115.706 165.004 115.828 164.527 116.26 164.183C116.682 163.856 117.192 162.774 117.397 161.781C117.708 160.256 117.614 159.99 116.754 160.034C114.58 160.151 113.177 160.866 112.5 162.197C112.056 163.074 111.352 163.567 110.581 163.54C109.91 163.517 109.361 163.684 109.361 163.911C109.361 164.139 109.211 164.71 109.033 165.176C108.756 165.902 108.989 165.952 110.553 165.503C112.849 164.843 114.763 164.804 114.047 165.431C113.448 165.958 108.168 167.189 106.51 167.189C105.905 167.189 105.556 166.962 105.728 166.684C106.083 166.108 104.607 166.213 104.014 166.801C103.204 167.616 101.646 167.134 100.647 165.758C99.7323 164.505 99.344 164.372 97.547 164.71C96.4211 164.921 95.4949 165.253 95.4949 165.448C95.4949 165.642 97.8354 166.629 100.686 167.633C103.543 168.642 106.976 170.068 108.312 170.805ZM155.9 150.234C153.665 152.114 151.385 152.098 149.888 150.201C148.534 148.476 148.479 147.805 149.505 145.359C150.537 142.891 152.905 141.121 155.179 141.121C156.698 141.121 157.192 141.438 157.935 142.874C159.128 145.176 158.279 148.226 155.9 150.234ZM414.452 155.109C412.201 157.123 409.893 157.15 408.346 155.192C406.998 153.473 406.937 152.791 407.952 150.395C409.544 146.634 413.343 145.048 415.523 147.228C417.353 149.058 416.821 152.996 414.452 155.109ZM372.029 85.148C371.546 86.3405 370.942 87.3222 370.681 87.3222C370.42 87.3222 369.827 86.3516 369.361 85.1647C368.712 83.5174 368.035 82.8352 366.499 82.2806C364.009 81.3765 363.931 80.4281 366.294 79.7737C367.647 79.3965 368.374 78.6921 369.206 76.9395C370.415 74.3993 371.014 74.0332 371.491 75.5363C372.284 78.0155 373.127 79.0083 375.107 79.8014C376.283 80.2728 377.248 80.7886 377.248 80.9439C377.248 81.0992 376.266 81.6206 375.074 82.1031C373.404 82.7687 372.694 83.4786 372.029 85.148ZM257.292 111.476C258.407 113.811 258.784 113.856 259.649 111.765C260.021 110.872 261.319 109.48 262.539 108.676L264.763 107.206L262.905 106.224C261.884 105.686 260.553 104.333 259.943 103.218C259.333 102.103 258.695 101.188 258.523 101.188C258.346 101.188 257.802 102.037 257.309 103.079C256.81 104.116 255.639 105.42 254.707 105.969C252.589 107.222 252.589 107.594 254.696 108.687C255.623 109.164 256.793 110.423 257.292 111.476ZM387.331 36.6178L388.529 38.6422L389.522 36.7065C390.071 35.6416 391.452 34.2162 392.594 33.5396C394.525 32.4026 394.597 32.2695 393.587 31.7315C391.818 30.7886 389.921 28.8973 389.405 27.5606C388.734 25.8246 388.141 25.9966 387.076 28.2262C386.577 29.28 385.406 30.539 384.48 31.016C382.378 32.1031 382.378 32.4525 384.469 33.6394C385.384 34.1607 386.671 35.4974 387.331 36.6178ZM73.5315 158.565C73.7256 159.341 74.0695 159.968 74.2913 159.957C76.9425 159.801 90.1982 156.596 90.5642 156.019C91.2797 154.882 91.1854 154.666 89.6269 153.961C88.4511 153.423 87.5304 153.512 84.5132 154.444C82.4888 155.07 79.2387 155.808 77.2863 156.08C75.3396 156.357 73.6202 156.712 73.4594 156.867C73.3041 157.028 73.3374 157.788 73.5315 158.565ZM74.8127 180.179C76.2769 180.938 77.6524 181.571 77.8798 181.582C78.6729 181.632 82.3723 175.475 81.8565 174.965C81.2908 174.399 76.5931 173.251 76.0994 173.556C75.9275 173.667 74.968 174.887 73.9696 176.274L72.1615 178.798L74.8127 180.179ZM113.165 158.376C113.659 159.679 113.914 159.785 115.833 159.48C117.852 159.164 118.013 158.981 119 155.936C119.571 154.172 119.91 152.597 119.754 152.436C119.594 152.281 117.414 152.536 114.907 153.013C112.4 153.49 110.204 153.878 110.026 153.878C109.854 153.878 110.365 154.566 111.163 155.403C111.962 156.241 112.866 157.577 113.165 158.376ZM150.72 149.679C151.202 150.156 151.762 150.545 151.967 150.545C156.538 150.45 159.25 142.231 154.707 142.231C153.071 142.231 151.086 143.834 150.442 145.681C149.644 147.971 149.694 148.648 150.72 149.679ZM409.278 154.943C410.52 155.664 410.753 155.664 412.35 154.937C413.87 154.244 415.517 151.726 415.517 150.09C415.517 148.764 414.125 147.222 412.927 147.222C412.461 147.222 411.23 148.071 410.193 149.108C408.052 151.249 407.625 153.978 409.278 154.943ZM436.51 96.7509C435.784 98.8308 435.246 98.853 434.408 96.8341C434.053 95.9689 432.961 94.8818 431.995 94.4215L430.232 93.5895L432.068 92.6356C433.094 92.1031 434.231 90.9162 434.641 89.9345L435.379 88.1763L436.377 90.2617C436.965 91.5041 437.886 92.4803 438.645 92.6688C440.304 93.0848 440.259 93.645 438.507 94.4437C437.725 94.7986 436.826 95.8358 436.51 96.7509ZM334.33 121.931C333.609 124.788 330.62 124.799 329.533 121.942C328.701 119.752 329.749 117.827 331.768 117.827C333.748 117.827 334.896 119.668 334.33 121.931ZM347.825 123.39C345.734 124.51 344.524 123.49 344.524 120.6C344.524 117.256 347.026 116.052 348.695 118.598C349.738 120.19 349.3 122.597 347.825 123.39ZM369.183 82.6078L370.869 84.2717L372.6 82.6078L374.325 80.9439L370.875 78.021L367.492 80.9439L369.183 82.6078ZM90.8693 131.338C88.6896 132.369 88.6175 132.375 86.3435 131.576C84.3024 130.861 82.7384 129.552 82.7384 128.559C82.7384 127.494 83.1821 127.622 85.0567 129.197C88.0739 131.737 91.7068 130.789 93.5093 126.995C94.0196 125.919 94.674 125.037 94.968 125.037C96.826 125.037 93.5537 130.062 90.8693 131.338ZM340.309 135.913C337.985 136.884 337.985 136.884 335.661 135.714C333.609 134.682 331.757 132.053 332.55 131.31C332.816 131.06 333.155 131.221 333.31 131.659C333.964 133.501 336.166 135.021 338.185 135.021C339.816 135.021 340.581 134.621 342.095 132.968C343.188 131.776 343.97 131.26 343.97 131.737C343.97 133.135 342.245 135.104 340.309 135.913ZM276.283 66.5512C275.917 66.9949 275.179 67.3554 274.641 67.3554C272.433 67.3554 271.751 64.4658 273.67 63.2567C275.589 62.0476 277.758 64.7764 276.283 66.5512ZM355.839 41.2046C354.369 43.3011 352.09 42.4026 352.384 39.8402C352.528 38.5701 352.877 38.204 354.053 38.0654C356.061 37.8324 357.02 39.5129 355.839 41.2046ZM424.286 66.9894C424.147 68.3982 423.837 68.7753 422.705 68.9084C421.014 69.1025 420.509 68.681 420.509 67.0559C420.509 65.4364 421.829 64.3993 423.288 64.8596C424.203 65.1536 424.419 65.6084 424.286 66.9894ZM434.281 94.5324C435.473 95.8413 435.678 95.8469 436.787 94.6211C437.653 93.6672 437.642 93.5396 436.599 92.5967C435.54 91.6372 435.429 91.6372 434.419 92.5524C433.421 93.4509 433.415 93.5784 434.281 94.5324ZM273.809 65.6916C274.414 66.6677 275.75 66.285 275.75 65.1369C275.75 64.5268 275.39 64.0277 274.952 64.0277C273.97 64.0277 273.343 64.9428 273.809 65.6916ZM353.781 40.9273C354.375 41.5263 355.323 41.016 355.517 39.9955C355.639 39.3687 355.323 39.0692 354.547 39.0692C353.437 39.0692 352.994 40.1452 353.781 40.9273ZM90.5531 152.802C91.0301 153.096 91.6901 152.924 92.3335 152.336C93.5759 151.216 92.6996 150.778 91.0135 151.682C90.0651 152.192 89.9652 152.436 90.5531 152.802ZM422.001 67.5496C422.511 68.0654 423.437 67.716 423.709 66.9062C423.831 66.5346 423.421 66.2462 422.772 66.2462C421.624 66.2462 421.274 66.8286 422.001 67.5496Z" fill="#305A35"/>
<path d="M370.591 254.017C362.51 255.292 342.715 255.581 335.372 254.538C311.428 251.122 292.316 243.29 273.253 229.075C263.597 221.87 249.787 206.784 242.748 195.753C240.502 192.225 234.523 180.755 232.815 176.69C225.1 158.348 221.806 136.407 223.63 115.608C226.636 81.3544 244.141 49.0415 271.412 27.4053C289.543 13.0182 310.48 4.1219 334.263 0.688726C341.445 -0.348435 362.061 -0.182049 369.632 0.971585C390.164 4.10525 409.099 11.7758 425.777 23.717C431.423 27.7603 440.852 36.163 444.651 40.5446C446.465 42.63 448.095 44.4658 448.273 44.6156C448.45 44.7653 449.809 46.3904 451.29 48.2207C458.905 57.6328 467.912 74.1275 471.734 85.6583C476.986 101.521 479.16 116.49 478.545 132.547C476.77 178.964 450.086 220.473 408.361 241.721C396.531 247.744 383.564 251.965 370.591 254.017ZM351.284 205.791C356.276 204.527 364.396 200.927 367.175 198.748C368.45 197.749 368.533 197.76 371.612 199.313C373.336 200.179 376.875 201.593 379.465 202.447C383.447 203.767 385.122 204.011 390.28 204.033C395.838 204.056 396.631 203.922 399.188 202.58C400.735 201.77 402.31 200.733 402.688 200.273C403.17 199.691 404.412 199.447 406.814 199.463C414.651 199.513 420.131 194.155 419.193 187.35C418.65 183.373 418.461 183.273 411.151 183.257C406.67 183.246 404.407 183.013 403.73 182.503C403.198 182.098 402.76 181.621 402.76 181.449C402.76 181.277 404.196 180.85 405.949 180.506C407.701 180.162 411.135 179.408 413.575 178.836C416.015 178.26 421.129 177.123 424.945 176.307C428.761 175.492 432.233 174.488 432.671 174.078C433.109 173.662 433.919 171.632 434.473 169.563C435.034 167.494 436.343 162.558 437.396 158.592C440.874 145.442 442.083 140.911 444.074 133.634C448.056 119.069 448.045 118.592 443.725 118.742C442.394 118.786 431.074 120.628 418.567 122.824C406.06 125.026 394.002 127.128 391.778 127.5C389.171 127.938 387.369 128.559 386.725 129.241C386.165 129.84 384.823 133.828 383.658 138.348C382.521 142.774 381.495 146.701 381.379 147.084C381.123 147.91 380.386 147.927 375.305 147.2C366.132 145.891 356.675 140.373 353.952 134.738C352.249 131.221 352.46 129.685 354.745 128.931C355.793 128.587 357.529 127.333 358.6 126.146C364.102 120.057 361.562 111.155 353.714 109.025C350.735 108.215 347.385 109.125 344.623 111.493L342.438 113.362L340.291 111.781C334.679 107.633 330.458 101.587 328.051 94.2551C326.814 90.478 326.592 88.8252 326.581 83.1625C326.57 77.0948 326.725 76.041 328.361 71.2379C329.349 68.3371 331.384 64.0277 332.893 61.6483C334.962 58.376 335.438 57.2556 334.839 57.0282C333.775 56.6178 325.666 58.7642 321.207 60.6333C308.406 66.0077 297.003 78.1819 291.284 92.5801C286.409 104.849 285.527 119.153 288.899 131.138C290.968 138.493 296.648 149.824 299.615 152.508C300.214 153.052 300.707 153.673 300.707 153.889C300.707 154.111 298.899 154.41 296.686 154.56C287.945 155.159 280.841 160.667 278.506 168.648L277.834 170.933L274.989 170.866C271.517 170.789 269.188 171.898 268.034 174.177C267.407 175.409 266.426 176.158 264.568 176.818C259.265 178.703 256.858 184.344 258.616 190.761C259.459 193.845 263.636 197.772 267.773 199.38C271.794 200.944 280.613 201.465 286.614 200.495L290.696 199.835L292.854 201.571C297.968 205.681 307.202 206.019 314.734 202.369C316.564 201.482 317.069 201.443 318.616 202.07C331.451 207.278 341.096 208.376 351.284 205.791ZM259.626 114.71C260.419 111.549 262.643 109.241 265.677 108.42C268.09 107.771 268.661 106.906 267.014 106.402C262.155 104.91 260.269 103.107 259.41 99.1081C258.872 96.5956 257.796 96.8619 257.041 99.6849C256.126 103.101 254.462 104.937 251.478 105.808C248.139 106.779 247.934 107.627 250.841 108.415C253.891 109.236 256.143 111.543 256.991 114.721C257.369 116.124 257.968 117.272 258.328 117.272C258.683 117.272 259.271 116.119 259.626 114.71ZM389.204 40.8718C390.17 36.4569 391.784 34.5878 395.627 33.4342C398.467 32.5856 398.334 31.6871 395.239 30.8607C392.15 30.0287 390.369 28.204 389.448 24.9206C388.589 21.8479 387.485 21.7093 387.025 24.6044C386.542 27.6106 384.462 29.8956 381.423 30.7442C378.367 31.5983 378.189 32.7298 380.99 33.4896C384.717 34.4935 385.91 35.991 387.552 41.7037C387.901 42.9295 388.861 42.4469 389.204 40.8718ZM372.028 85.148C372.693 83.4786 373.403 82.7687 375.072 82.1031C376.265 81.6206 377.247 81.0992 377.247 80.9439C377.247 80.7886 376.282 80.2728 375.106 79.8014C373.126 79.0083 372.283 78.0155 371.49 75.5363C371.013 74.0332 370.414 74.3993 369.204 76.9395C368.372 78.6921 367.646 79.3965 366.293 79.7737C363.93 80.4281 364.008 81.3765 366.498 82.2806C368.034 82.8352 368.711 83.5174 369.36 85.1647C369.826 86.3516 370.419 87.3222 370.68 87.3222C370.94 87.3222 371.545 86.3405 372.028 85.148ZM150.718 149.679C149.692 148.648 149.642 147.971 150.441 145.681C151.084 143.834 153.07 142.231 154.706 142.231C159.249 142.231 156.537 150.45 151.966 150.545C151.761 150.545 151.201 150.156 150.718 149.679ZM409.277 154.943C407.624 153.978 408.051 151.249 410.192 149.108C411.229 148.071 412.46 147.222 412.926 147.222C414.124 147.222 415.516 148.764 415.516 150.09C415.516 151.726 413.869 154.244 412.349 154.937C410.752 155.664 410.519 155.664 409.277 154.943ZM436.509 96.7509C436.825 95.8358 437.724 94.7986 438.506 94.4437C440.258 93.645 440.303 93.0848 438.644 92.6688C437.884 92.4803 436.964 91.5041 436.376 90.2617L435.378 88.1763L434.64 89.9345C434.229 90.9162 433.092 92.1031 432.066 92.6356L430.231 93.5895L431.994 94.4215C432.959 94.8818 434.052 95.9689 434.407 96.8341C435.244 98.853 435.782 98.8308 436.509 96.7509ZM276.281 66.5512C277.757 64.7764 275.588 62.0476 273.669 63.2567C271.75 64.4658 272.432 67.3555 274.64 67.3555C275.178 67.3555 275.915 66.9949 276.281 66.5512ZM355.838 41.2046C357.019 39.5129 356.06 37.8324 354.052 38.0654C352.876 38.204 352.527 38.5701 352.382 39.8402C352.089 42.4026 354.368 43.3011 355.838 41.2046ZM424.285 66.9894C424.418 65.6084 424.202 65.1536 423.287 64.8596C421.828 64.3993 420.508 65.4364 420.508 67.0559C420.508 68.681 421.013 69.1025 422.704 68.9084C423.836 68.7753 424.146 68.3982 424.285 66.9894ZM269.293 142.502C269.471 142.963 270.119 143.34 270.741 143.34C271.556 143.34 271.867 142.979 271.867 142.014C271.867 141.282 271.512 140.55 271.073 140.384C270.059 139.99 268.872 141.404 269.293 142.502ZM374.346 173.018C374.207 172.824 373.941 172.83 373.503 173.007C371.656 173.75 368.184 174.044 368.567 173.429C368.766 173.102 370.175 172.669 371.7 172.458C373.137 172.258 374.451 171.898 374.74 171.626C374.712 171.682 374.684 171.726 374.662 171.77C374.49 172.042 374.374 172.536 374.346 173.018ZM102.737 167.178C103.225 167.25 103.686 167.134 104.013 166.801C104.606 166.213 106.082 166.108 105.727 166.684C105.555 166.962 105.904 167.189 106.509 167.189C108.095 167.189 112.992 166.063 113.941 165.503C112.593 166.379 105.039 167.794 103.475 167.439C103.248 167.389 102.992 167.295 102.737 167.178ZM100.103 165.065L102.737 167.178C101.994 166.834 101.184 166.263 100.707 165.703C100.485 165.442 100.291 165.231 100.103 165.065ZM99.9197 164.921C99.3318 164.494 98.7439 164.488 97.5459 164.71C98.8105 164.471 99.3762 164.466 99.9197 164.921ZM375.888 167.955C376.226 166.457 376.453 165.037 376.32 164.815C376.47 165.059 376.237 166.457 375.888 167.955ZM374.057 175.32C373.858 175.631 373.336 175.886 372.676 176.058C373.336 175.88 373.852 175.631 374.046 175.32C374.118 175.209 374.179 175.07 374.241 174.904C374.191 175.07 374.13 175.215 374.057 175.32ZM114.046 165.431C114.018 165.453 113.985 165.481 113.941 165.503C113.985 165.481 114.018 165.453 114.046 165.425C114.146 165.342 114.196 165.27 114.196 165.209C114.196 165.27 114.146 165.342 114.046 165.431ZM99.9197 164.921C99.9807 164.965 100.042 165.015 100.103 165.065L99.9197 164.921Z" fill="#6CD388"/>
<path d="M318.528 164.804C315.81 160.417 308.234 155.009 304.768 154.993C303.353 154.987 302.505 154.205 299.515 150.162C291.329 139.08 287.008 123.423 288.478 110.19C290.275 94.0277 296.803 81.0438 308.556 70.2396C313.736 65.4808 324.624 60.0288 331.418 58.7975L333.559 58.4093L332.355 60.1009C330.514 62.6855 327.53 69.4575 326.587 73.1791C325.15 78.8696 324.918 84.3272 325.877 89.879C327.635 100.068 332.693 108.016 341.301 114.111C341.95 114.577 342.144 115.242 341.928 116.302C341.662 117.638 341.362 117.827 339.554 117.827C337.668 117.827 337.391 117.622 336.47 115.586C335.916 114.36 334.479 112.464 333.276 111.371C331.102 109.413 331.052 109.397 326.748 109.591C323.453 109.74 322.045 110.062 320.885 110.933C318.717 112.547 317.297 114.616 316.853 116.784C316.52 118.437 316.249 118.676 314.551 118.803C311.046 119.064 309.027 119.535 309.027 120.084C309.027 120.423 310.381 120.495 312.594 120.267L316.154 119.901L316.775 122.197C318.628 129.086 327.008 132.153 332.871 128.093C335.101 126.546 337.314 122.874 337.314 120.711C337.314 119.901 337.752 119.402 338.667 119.169C340.508 118.709 341.068 119.169 341.751 121.709C342.072 122.902 342.982 124.649 343.775 125.592C345.223 127.311 348.817 129.474 350.225 129.474C350.647 129.474 351.385 130.761 351.906 132.386C353.276 136.696 354.662 138.609 358.395 141.36C364.49 145.847 372.455 148.859 378.279 148.881L380.697 148.886L380.309 150.955C379.637 154.527 379.344 154.743 373.259 156.036C368.096 157.139 367.497 157.167 366.92 156.374C366.393 155.658 365.611 155.564 362.583 155.875C360.065 156.135 358.489 156.041 357.619 155.575C355.417 154.399 353.27 155.043 351.8 157.317C350.63 159.125 350.275 159.33 348.75 159.069C338.001 157.206 328.75 152.813 321.756 146.252C319.399 144.039 317.319 142.231 317.13 142.231C315.328 142.231 319.737 147.056 324.834 150.667C330.963 155.004 339.421 158.692 345.55 159.702C346.875 159.918 347.746 160.295 347.491 160.545C346.814 161.188 336.121 163.19 331.213 163.595C327.624 163.889 324.03 164.804 320.602 166.307C319.942 166.596 319.377 166.185 318.528 164.804ZM70.813 153.329C68.5668 150.938 66.7697 150.084 63.0981 149.652C60.4303 149.341 59.9977 149.125 59.9921 148.115C59.9755 144.632 55.8657 139.164 51.534 136.862C49.7758 135.925 43.4198 135.492 40.8629 136.13C39.9422 136.357 39.3987 135.697 37.6793 132.247C34.6178 126.102 33.686 121.964 33.686 114.499C33.686 106.779 34.5956 102.941 38.1618 95.6805C40.2639 91.4043 41.5506 89.6406 45.2334 85.9745C50.4525 80.7831 54.1907 78.4315 60.9627 76.0743C65.3111 74.5546 66.5257 74.3771 72.4769 74.3549C82.8873 74.3161 90.4692 76.9672 97.9789 83.2734C102.693 87.2335 105.361 90.6389 108.301 96.4625L110.536 100.888L109.255 101.255C106.648 101.998 98.3394 103.501 81.9056 106.213C75.8324 107.217 62.0609 109.718 59.0271 110.367C58.2728 110.534 57.7792 111.049 57.7792 111.676C57.7792 112.353 57.2412 112.846 56.2539 113.085C51.4896 114.233 50.4636 114.616 50.9295 115.082C51.2345 115.387 52.8152 115.331 54.8729 114.948C59.4153 114.1 60.8241 114.721 61.6893 117.938C63.564 124.899 67.5851 128.382 73.7082 128.354C77.1746 128.337 80.3083 126.862 82.8485 124.044C85.2944 121.327 86.2207 118.276 85.9711 113.728C85.7991 110.528 85.8546 110.345 87.2467 109.851C89.554 109.042 90.1586 109.652 91.473 114.111C92.5268 117.705 93.0371 118.57 95.1114 120.267C99.5429 123.895 104.812 124.116 109.587 120.877C110.708 120.112 111.728 119.491 111.845 119.491C112.288 119.491 111.384 123.756 110.175 127.361C107.119 136.512 99.8313 145.292 91.6838 149.63L87.6849 151.765L82.9428 148.798C79.9312 146.917 76.6089 144.166 73.8468 141.26C71.4564 138.742 69.3543 136.684 69.1824 136.684C66.9805 136.684 76.742 146.729 81.9611 149.835C83.9023 150.994 85.4941 152.109 85.4997 152.314C85.5163 152.93 79.615 154.455 75.9156 154.793C72.5934 155.093 72.4214 155.043 70.813 153.329ZM351.595 178.121C336.143 170.733 333.986 169.546 333.986 168.448C333.986 168.293 333.975 168.143 333.964 168.01C333.941 167.722 333.925 167.489 334.03 167.361C334.485 166.806 337.208 168.11 351.54 174.96V174.965C353.121 175.719 354.845 176.546 356.726 177.444L370.314 183.933L374.474 183.634C376.759 183.468 383.747 182.22 390.004 180.855C396.26 179.496 407.985 176.973 416.071 175.248C424.158 173.523 431.207 171.981 431.74 171.831C432.76 171.537 432.971 172.026 432.283 173.102C431.923 173.667 427.413 174.721 401.928 180.217C398.573 180.944 390.586 182.674 384.185 184.067C377.779 185.459 371.789 186.585 370.874 186.568C369.92 186.551 361.662 182.93 351.595 178.121ZM70.3027 61.6705C70.0975 60.9495 68.3116 43.7559 68.3116 42.5357C68.3172 42.0421 69.5318 41.8424 72.5435 41.8424H76.7697L76.4148 48.3593C76.2207 51.9422 75.9156 56.5623 75.7381 58.62L75.4164 62.3638H72.9594C71.4675 62.3638 70.4248 62.092 70.3027 61.6705ZM106.659 74.3605L104.895 72.5468L109.354 66.4847C111.806 63.1514 114.468 59.5851 115.261 58.559L116.714 56.6954L122.921 62.9018L116.892 68.5812C116.304 69.1303 115.76 69.6406 115.261 70.1175C110.469 74.6378 109.116 75.919 108.162 75.6694C107.685 75.5418 107.313 75.0371 106.659 74.3605ZM29.9533 70.3727C26.1929 67.1558 23.026 64.2606 22.9095 63.9445C22.7098 63.3677 27.7181 57.9267 28.4502 57.9267C28.844 57.9267 39.016 70.4947 40.2029 72.447C40.7742 73.3843 40.6355 73.7171 39.199 74.8763C38.2839 75.6195 37.3687 76.224 37.1635 76.2296C36.9583 76.2296 33.7137 73.5951 29.9533 70.3727ZM4.91723 109.646C4.78411 109.419 4.82849 107.483 5.02261 105.348L5.36648 101.465L7.585 101.632C9.45966 101.776 17.7958 103.279 22.1441 104.255C23.4475 104.549 23.7581 106.141 23.0426 108.814C22.7154 110.04 22.5656 110.062 13.93 110.062C9.10469 110.062 5.04479 109.874 4.91723 109.646ZM123.608 109.707C123.398 109.496 123.226 108.271 123.226 106.978C123.226 105.004 123.425 104.588 124.474 104.344C128.467 103.401 140.547 101.133 140.708 101.293C140.813 101.399 140.979 103.351 141.074 105.636L141.251 109.785L132.621 109.935C127.874 110.023 123.819 109.918 123.608 109.707ZM74.8119 180.179L72.1608 178.798L73.9689 176.274C74.9672 174.887 75.9267 173.667 76.0986 173.556C76.5923 173.251 81.29 174.399 81.8557 174.965C82.3715 175.475 78.6721 181.632 77.879 181.582C77.6516 181.571 76.2761 180.938 74.8119 180.179ZM90.8685 131.338C93.5529 130.062 96.8252 125.037 94.9672 125.037C94.6733 125.037 94.0188 125.919 93.5085 126.995C91.706 130.789 88.0731 131.737 85.0559 129.197C83.1813 127.622 82.7376 127.494 82.7376 128.559C82.7376 129.552 84.3017 130.861 86.3427 131.576C88.6167 132.375 88.6888 132.369 90.8685 131.338ZM340.309 135.913C342.244 135.104 343.969 133.135 343.969 131.737C343.969 131.26 343.187 131.776 342.094 132.968C340.58 134.621 339.815 135.021 338.184 135.021C336.165 135.021 333.964 133.501 333.309 131.659C333.154 131.221 332.815 131.06 332.549 131.31C331.756 132.053 333.609 134.682 335.661 135.714C337.985 136.884 337.985 136.884 340.309 135.913ZM116.897 163.257C116.931 163.057 116.92 162.857 116.847 162.68C116.448 161.632 114.013 161.915 112.566 163.174C112.044 163.628 111.107 163.867 110.486 163.706C110.197 163.628 109.931 163.606 109.732 163.628C109.953 163.562 110.253 163.529 110.58 163.54C111.351 163.567 112.055 163.074 112.499 162.197C113.176 160.866 114.579 160.151 116.753 160.034C117.613 159.99 117.707 160.256 117.397 161.782C117.291 162.286 117.108 162.813 116.897 163.257ZM375.888 167.955C375.716 168.692 375.511 169.452 375.306 170.112C375.211 169.569 374.374 169.408 372.438 169.408C370.969 169.408 370.037 169.153 370.037 168.759C370.037 168.398 369.465 168.637 368.772 169.291C368.667 169.391 368.539 169.496 368.39 169.607C368.728 169.291 368.928 168.825 368.928 168.254C368.928 167.394 369.194 167.234 370.225 167.494C370.874 167.655 371.335 167.6 371.762 167.245L370.68 168.664L373.137 168.293C374.895 168.021 375.661 167.866 376.021 167.339C375.977 167.544 375.933 167.749 375.888 167.955ZM368.001 169.879C367.175 170.423 366.016 171.011 365.028 171.36L362.549 172.242L362.183 171.804C362.854 172.364 363.298 172.064 364.396 171.038C365.073 170.412 366.055 169.968 366.581 170.057C367.131 170.145 367.613 170.079 368.001 169.879ZM100.103 165.065L102.738 167.178C102.682 167.15 102.627 167.128 102.571 167.1C101.872 166.751 101.151 166.219 100.708 165.703C100.486 165.442 100.292 165.231 100.103 165.065ZM374.906 171.26C374.851 171.399 374.796 171.526 374.74 171.626C374.463 171.887 373.243 172.231 371.873 172.436C373.431 172.203 374.479 171.798 374.906 171.26ZM372.289 162.963C373.004 164.56 373.209 165.032 372.81 165.78C373.143 165.054 372.987 164.521 372.289 162.963ZM360.48 169.835C359.676 169.047 359.122 168.986 357.691 169.214C359.183 168.975 359.721 169.025 360.48 169.835ZM378.739 157.6C378.883 156.956 378.939 156.512 378.861 156.418C378.867 156.418 378.867 156.424 378.867 156.424C378.95 156.507 378.889 156.956 378.739 157.6Z" fill="#E4FFE2"/>
</svg>
