<svg width="203" height="216" viewBox="0 0 203 216" fill="none" xmlns="http://www.w3.org/2000/svg">
<path d="M171.837 215.31C168.717 215.9 164.194 215.953 161.444 215.428C155.197 214.238 150.972 209.589 150.919 203.847L150.894 201.357L149.238 200.736C144.416 198.928 140.554 196.517 136.858 193.008L134.659 190.92L132.363 191.84C128.942 193.207 126.412 193.413 107.963 193.832C98.6816 194.042 85.3283 194.368 78.2928 194.56C71.2573 194.752 64.7832 194.802 63.902 194.67C56.1096 193.523 50.1294 187.614 48.8928 179.844L48.4522 177.084L47.4289 177.287C46.8639 177.4 45.702 177.493 44.8492 177.493C43.6055 177.493 43.2928 177.617 43.2893 178.114C43.2822 179.254 41.5837 182.408 40.1197 183.995C38.3537 185.909 35.1131 187.44 32.2811 187.695C26.2476 188.242 17.2365 183.828 10.4177 176.981C-1.80566 164.708 -3.51479 151.025 6.57658 146.213C8.72988 145.186 8.87911 145.041 8.67302 144.164C8.16845 142.008 8.02988 133.826 8.45272 130.942C9.55424 123.417 12.2725 117.76 18.7964 109.418C25.1888 101.246 26.5461 97.9009 26.9583 89.2855C27.2177 83.8342 27.2674 83.5679 28.4187 81.3093C29.204 79.7751 30.135 78.5783 31.137 77.8148C34.0685 75.5846 38.4141 74.9738 42.1131 76.2735L44.1101 76.9731L43.8649 71.3905C43.7299 68.3186 43.2324 57.1711 42.7598 46.6202C41.9923 29.5598 41.9532 27.1733 42.4009 25.0354C43.0476 21.9493 44.4263 19.4208 46.7217 17.1196C50.4207 13.4085 54.141 12.3679 63.7243 12.3715C67.2421 12.3715 81.7502 12.1797 95.9669 11.9524L96.6349 11.9382C120.112 11.5583 123.541 11.505 126.412 12.7444C126.93 12.9681 127.431 13.2345 128.028 13.547C132.193 15.7417 135.796 20.5892 136.702 25.2272C136.904 26.2535 137.402 35.2454 137.807 45.2068C138.212 55.1682 139.1 75.304 139.776 89.9531C140.454 104.602 141.009 117.692 141.009 119.045C141.009 121.329 141.172 121.854 143.368 126.549L145.731 131.599L147.291 130.612C149.775 129.039 152.827 128.375 156.782 128.545C159.919 128.684 160.402 128.808 163.035 130.15L165.892 131.61L167.751 130.9C170.259 129.944 175.774 130.129 178.674 131.269C185.023 133.758 190.63 141.056 193.942 151.142C196.646 159.363 197.709 168.426 196.81 175.561C196.401 178.81 196.415 179.108 196.987 179.439C199.308 180.788 200.622 182.152 201.77 184.396C202.914 186.634 203.014 187.078 202.996 189.887C202.971 194.631 201.312 198.108 196.973 202.504C190.719 208.843 181.701 213.439 171.837 215.31ZM63.9695 188.793C64.8009 188.935 67.5619 188.995 70.1096 188.928C72.6573 188.864 86.6537 188.523 101.212 188.175C124.276 187.624 127.865 187.468 129.084 186.946L130.484 186.349L128.373 184.197C124.5 180.252 120.378 177.745 114.714 175.894C109.018 174.034 106.591 172.325 104.733 168.877C103.649 166.867 103.539 166.381 103.532 163.643C103.521 161.05 103.66 160.34 104.509 158.614C105.856 155.872 107.927 153.848 110.749 152.509C112.994 151.447 113.332 151.391 117.379 151.391C121.458 151.391 121.75 151.44 124.095 152.552C125.442 153.187 126.614 153.646 126.692 153.564C126.923 153.333 121.846 142.072 116.832 131.695C114.327 126.51 111.886 121.226 111.41 119.951C108.83 113.068 109.544 107.695 113.588 103.533C115.663 101.395 118.1 100.429 121.416 100.429C124.553 100.429 126.909 101.165 129.105 102.834C130.665 104.016 133.532 107.365 134.563 109.205C134.755 109.553 134.979 109.755 135.06 109.659C135.142 109.563 135.003 104.773 134.755 99.0089C131.699 27.8019 131.692 25.9055 130.882 24.4601C130.786 24.2896 130.679 24.1263 130.551 23.8528C129.482 21.5054 127.581 19.3569 125.726 18.4016C125.42 18.2418 125.143 18.0997 124.862 17.9719C122.446 16.8852 119.522 16.9278 91.3619 17.3149H91.2695C74.7502 17.5422 59.8619 17.8547 58.1776 18.011C53.3877 18.4549 50.2999 20.4507 48.5943 24.2044C47.6598 26.2677 47.7096 30.4796 48.9781 56.9261C49.5608 69.036 50.037 80.0201 50.0405 81.3341C50.0441 82.9464 50.339 84.6049 50.9537 86.4338C52.1796 90.081 52.4639 95.1664 51.6928 99.5736C51.2131 102.319 51.1811 103.995 51.469 110.76C54.4218 179.634 54.4146 179.552 55.4664 181.846C57.1152 185.447 60.4837 188.196 63.9695 188.793ZM161.174 213.354C161.906 213.538 164.666 213.631 167.303 213.56C171.112 213.457 172.793 213.236 175.465 212.491C186.96 209.298 197.506 201.556 200.416 194.184C202.083 189.972 201.077 185.21 197.94 182.45C197.058 181.676 196.22 181.044 196.074 181.044C195.928 181.044 195.253 182.202 194.578 183.619C193.207 186.488 191.156 189.127 188.943 190.877C186.921 192.479 186.498 191.975 188.26 190.068C193.064 184.858 195.051 179.076 195.086 170.212C195.108 164.797 194.631 161.029 193.239 155.652C190.35 144.483 185.208 136.603 178.809 133.549C176.168 132.292 175.817 132.214 172.633 132.228C170.778 132.235 168.813 132.43 168.269 132.665L167.278 133.094L168.65 134.824C170.089 136.642 171.098 138.663 170.743 139.014C170.629 139.128 169.232 137.846 167.637 136.163C165.342 133.741 164.183 132.828 162.069 131.784C159.557 130.541 159.194 130.463 155.979 130.452C152.386 130.438 149.384 131.233 147.433 132.718L146.573 133.371L147.884 136.422C148.606 138.098 149.295 139.977 149.419 140.595C150.027 143.631 148.073 140.275 141.009 126.151C136.805 117.749 132.704 109.922 131.894 108.761C128.693 104.172 125.854 102.408 121.643 102.393C113.808 102.361 109.853 109.698 112.934 118.541C113.378 119.812 115.936 125.406 118.623 130.971C125.534 145.289 131.535 158.898 131.187 159.463C131.098 159.605 129.965 158.827 128.672 157.73C124.308 154.029 119.596 152.495 115.02 153.28C113.655 153.514 112.028 153.965 111.402 154.285C106.211 156.938 103.973 162.975 106.389 167.819C107.938 170.926 110.383 172.595 116.135 174.474C123.427 176.857 125.811 178.643 136.034 189.414C141.783 195.469 146.903 198.445 154.152 199.947C156.931 200.523 158.388 200.615 162.328 200.455C164.965 200.345 168.298 200.001 169.73 199.688C171.162 199.372 172.519 199.177 172.75 199.255C173.397 199.475 171.205 200.48 168.134 201.368C165.697 202.075 164.556 202.174 158.999 202.171L152.649 202.167L152.823 204.316C152.919 205.498 153.26 206.979 153.584 207.6C155.009 210.36 157.858 212.515 161.174 213.354ZM26.0593 184.815C31.4177 186.566 35.9659 185.682 38.9329 182.308C40.1624 180.912 41.8999 177.279 41.4629 177.017C41.3954 176.974 40.2299 176.662 38.8725 176.321C35.7349 175.532 31.9862 173.707 29.2573 171.64C25.9314 169.122 26.1446 168.465 29.6126 170.553C32.0715 172.031 36.069 173.728 38.9045 174.492C41.374 175.159 48.072 175.607 48.3705 175.127C48.5588 174.822 48.0258 161.089 46.6827 131.716C46.1674 120.395 46.1426 120.185 45.2542 118.843C44.2877 117.383 43.6481 117.152 42.9375 118.008C42.4969 118.541 41.5162 118.747 41.5162 118.31C41.5162 118.182 42.3405 116.797 43.3426 115.231C48.4664 107.251 51.0461 97.9364 50.0476 91.054C49.1984 85.2228 46.1959 80.3007 42.4116 78.5392C38.4568 76.6961 33.1553 77.7793 30.9025 80.8867C29.5238 82.7902 29.1436 84.548 28.9446 89.9531C28.6745 97.1836 26.9334 101.985 22.4385 107.887C21.3263 109.35 19.3365 111.971 18.0218 113.704C15.2111 117.412 12.3578 122.962 11.3415 126.709C8.5522 136.965 10.1334 147.221 16.0568 157.307C16.5933 158.22 16.8989 159.044 16.7426 159.143C15.9999 159.601 11.3806 152.694 10.3893 149.647C10.0695 148.652 9.6786 147.701 9.52581 147.534C9.03901 147.005 6.81464 147.999 5.08419 149.523C2.0852 152.158 1.21109 155.638 2.39789 160.194C5.08063 170.482 15.5629 181.388 26.0593 184.815ZM137.338 114.663C138.219 116.293 138.745 116.964 138.827 116.559C138.894 116.215 138.77 112.007 138.55 107.205C137.064 74.956 136.734 67.5906 136.393 58.8793C135.735 42.0319 134.982 26.7187 134.748 25.4616C133.977 21.3137 130.413 16.8426 126.262 14.8148L123.775 13.6002L104.943 13.7068C94.5847 13.7636 79.0745 13.927 70.4756 14.0655L54.841 14.3212L52.0943 15.628C48.8715 17.1586 46.7289 19.1971 45.3217 22.063C43.7867 25.1988 43.6126 26.8998 43.9928 35.0394C44.1811 39.0666 44.5898 48.1188 44.8989 55.1504C45.2116 62.182 45.5811 70.3571 45.7233 73.3153L45.9862 78.692L47.372 80.2403C48.1324 81.0891 48.8857 81.8384 49.0456 81.9023C49.202 81.9662 49.2481 80.9293 49.1487 79.594C49.0456 78.2587 48.7223 71.735 48.4273 65.094C48.1324 58.4531 47.6563 48.1437 47.372 42.1882C46.6791 27.7522 46.6933 26.6442 47.5781 24.279C49.074 20.2838 53.1319 17.4356 57.7583 17.1302C60.8959 16.9243 101.578 16.2637 113.293 16.2282C123.409 16.1962 124.066 16.3099 127.197 18.604C129.251 20.1133 130.953 22.4501 131.667 24.7442C132.186 26.4098 132.552 32.9264 133.717 61.1876C134.232 73.745 134.904 88.9445 135.661 105.309L135.981 112.142L137.338 114.663ZM61.77 192.312C63.4898 192.806 69.5339 192.756 96.9476 192.032C127.844 191.215 128.91 191.161 130.97 190.274C131.997 189.833 132.836 189.365 132.836 189.23C132.836 189.098 132.374 188.548 131.813 188.008L130.789 187.028L128.881 187.596C127.289 188.068 121.725 188.288 95.3487 188.914L63.7243 189.663L61.6705 188.874C60.5405 188.441 58.9593 187.582 58.1563 186.964C56.3512 185.568 54.1055 181.91 53.8212 179.893C53.5974 178.331 53.0644 167.691 51.8243 140.026C51.4299 131.237 50.9466 120.579 50.7512 116.343C50.5593 112.11 50.3994 107.969 50.3994 107.141C50.3994 106.314 50.2999 105.735 50.1827 105.856C50.0619 105.973 49.4116 107.319 48.7329 108.842L47.5035 111.616L47.7131 116.41C47.8304 119.045 48.3136 129.674 48.7898 140.026C49.2659 150.378 49.8309 163.323 50.0476 168.792C50.2644 174.261 50.5948 179.535 50.7832 180.511C51.8207 185.916 56.3192 190.746 61.77 192.312ZM97.3634 24.2009C96.8019 24.7087 95.6827 24.7868 89.038 24.7868C82.5355 24.7868 81.2776 24.7016 80.805 24.2293C80.1334 23.5545 80.0908 22.8691 80.6913 22.3862C81.3984 21.8179 96.8446 21.4166 97.4877 21.9529C98.202 22.5424 98.1486 23.4871 97.3634 24.2009ZM45.2471 116.055C45.6202 116.655 46.1355 116.449 46.1355 115.7C46.1355 115.309 45.9862 114.99 45.8014 114.99C45.3253 114.99 44.9877 115.636 45.2471 116.055Z" fill="var(--md-sys-color-on-primary-container)"/>
<path d="M137.338 114.663L135.981 112.142L135.661 105.309C134.904 88.9446 134.233 73.745 133.717 61.1876C132.552 32.9264 132.186 26.4098 131.667 24.7442C130.953 22.4501 129.251 20.1133 127.197 18.604C124.067 16.3099 123.409 16.1963 113.293 16.2282C101.578 16.2637 60.896 16.9243 57.7584 17.1302C53.132 17.4357 49.0741 20.2838 47.5782 24.279C46.6934 26.6442 46.6792 27.7522 47.3721 42.1882C47.6564 48.1437 48.1325 58.4531 48.4274 65.0941C48.7224 71.735 49.0457 78.2587 49.1488 79.594C49.2482 80.9293 49.2021 81.9663 49.0457 81.9023C48.8858 81.8384 48.1325 81.0891 47.3721 80.2403L45.9863 78.692L45.7234 73.3153C45.5812 70.3571 45.2117 62.182 44.899 55.1504C44.5899 48.1189 44.1812 39.0666 43.9929 35.0394C43.6127 26.8999 43.7868 25.1988 45.3218 22.063C46.729 19.1971 48.8716 17.1587 52.0944 15.628L54.8411 14.3212L70.4757 14.0655C79.0746 13.927 94.5848 13.7636 104.943 13.7068L123.775 13.6003L126.262 14.8148C130.413 16.8426 133.977 21.3137 134.748 25.4616C134.982 26.7187 135.736 42.0319 136.393 58.8793C136.734 67.5906 137.064 74.956 138.55 107.205C138.77 112.007 138.894 116.215 138.827 116.559C138.745 116.964 138.219 116.293 137.338 114.663ZM61.7701 192.312C56.3193 190.746 51.8208 185.916 50.7833 180.511C50.5949 179.535 50.2645 174.261 50.0477 168.792C49.831 163.323 49.266 150.378 48.7899 140.026C48.3137 129.674 47.8305 119.045 47.7132 116.41L47.5036 111.616L48.733 108.842C49.4117 107.319 50.062 105.973 50.1828 105.856C50.3 105.735 50.3995 106.314 50.3995 107.141C50.3995 107.969 50.5594 112.11 50.7513 116.343C50.9467 120.58 51.43 131.237 51.8244 140.026C53.0645 167.691 53.5975 178.331 53.8213 179.893C54.1056 181.91 56.3513 185.568 58.1564 186.964C58.9594 187.582 60.5406 188.441 61.6706 188.874L63.7244 189.663L95.3488 188.914C121.725 188.289 127.289 188.068 128.881 187.596L130.789 187.028L131.813 188.008C132.374 188.548 132.836 189.098 132.836 189.23C132.836 189.365 131.997 189.833 130.971 190.274C128.91 191.162 127.844 191.215 96.9477 192.032C69.534 192.756 63.4899 192.806 61.7701 192.312ZM167.587 69.4621C167.353 69.6965 166.905 69.8883 166.592 69.8883C165.331 69.8883 165.171 69.1532 165.157 63.3362L165.139 57.6363L163.469 59.5008C161.795 61.3652 160.758 61.7842 159.912 60.939C159.678 60.7046 159.486 60.2643 159.489 59.9624C159.493 59.1101 165.814 52.1318 166.582 52.1318C166.965 52.1318 168.564 53.563 170.384 55.5411C172.946 58.3217 173.521 59.1563 173.521 60.069C173.521 61.0101 173.376 61.2054 172.59 61.2942C171.858 61.3794 171.343 61.042 170.171 59.7103C168.98 58.3572 168.614 58.1229 168.351 58.5384C168.174 58.8225 168.021 61.3013 168.021 64.0464C168.014 67.4486 167.879 69.1709 167.587 69.4621ZM170.686 102.251C169.034 104.133 167.406 105.778 167.069 105.906C166.461 106.14 163.885 103.697 160.669 99.8257C159.315 98.1957 159.294 97.0983 160.609 96.6828C161.181 96.5017 161.771 96.871 163.256 98.3377L165.171 100.227V94.513C165.171 88.3621 165.327 87.8224 167.015 88.0603C167.829 88.1775 167.836 88.2165 167.932 94.1259C167.985 97.3966 168.167 100.074 168.334 100.074C168.501 100.074 169.222 99.3641 169.933 98.4975C171.357 96.7574 172.398 96.2425 173.184 96.8924C174.196 97.734 173.685 98.8385 170.686 102.251ZM27.0437 32.1558C25.5264 32.7559 23.7071 33.4946 23.0036 33.7929C21.863 34.2795 21.6427 34.283 20.9604 33.8036C20.1147 33.2105 19.9584 32.1558 20.6406 31.6408C21.4295 31.0442 28.3584 28.3381 29.0975 28.3381C29.9432 28.3381 30.3021 29.0839 30.0142 30.2345C29.8543 30.8738 29.1756 31.3106 27.0437 32.1558ZM29.364 18.3235C28.7386 18.9485 28.2127 18.8633 24.1229 17.4854C19.969 16.0862 19.4041 15.7452 19.5569 14.7331C19.7772 13.2629 20.6335 13.2203 24.6985 14.4739C26.8163 15.1273 28.8274 15.9015 29.1685 16.1963C29.8899 16.8142 29.9716 17.7162 29.364 18.3235ZM36.6944 8.95871C35.9838 9.66897 35.7173 9.65832 34.8538 8.89479C33.8447 8.00341 30.501 2.22545 30.501 1.37669C30.501 0.584755 31.7092 -0.228492 32.4625 0.059163C33.0026 0.265138 37.2523 7.27895 37.2523 7.96435C37.2523 8.20229 37 8.64975 36.6944 8.95871ZM167.63 82.1758C167.147 82.7582 166.653 82.7902 165.793 82.2894C165.274 81.9876 165.171 81.4052 165.171 78.7914C165.171 75.3964 165.502 74.7074 167.015 74.9205C167.797 75.0306 167.84 75.1975 167.939 78.3581C168.007 80.5031 167.896 81.8562 167.63 82.1758Z" fill="var(--md-sys-color-primary)"/>
<path d="M101.51 95.7844C89.5214 95.9868 75.8767 96.2283 71.1863 96.3242C66.2757 96.4201 62.1894 96.349 61.5569 96.1573C60.9493 95.9726 60.0432 95.4115 59.5422 94.9107C57.9396 93.3056 57.9432 93.334 56.7422 66.6531L56.3193 57.2066L57.1046 55.9353C57.5594 55.1966 58.5117 54.3727 59.3858 53.9607C60.8178 53.2824 62.161 53.2327 90.8041 52.8101C113.879 52.4657 121.043 52.4621 122.126 52.7853C123.821 53.2931 125.619 55.2286 125.889 56.8302C125.996 57.4694 126.401 65.3782 126.788 74.4091C127.293 86.1639 127.389 91.1038 127.122 91.8105C126.664 93.025 125.104 94.7154 124.074 95.1167C123.651 95.2801 113.499 95.5819 101.51 95.7844ZM113.129 151.6C112.383 151.76 111.758 152.033 110.749 152.509C107.927 153.848 105.856 155.872 104.509 158.614C103.66 160.34 103.521 161.05 103.532 163.643C103.539 166.381 103.649 166.867 104.733 168.877C106.591 172.325 109.018 174.034 114.714 175.895C120.378 177.745 124.5 180.252 128.373 184.197L130.224 186.083L128.057 183.903C126.721 182.557 125.328 181.378 124.966 181.282C124.603 181.186 124.39 181.243 124.489 181.406C124.784 181.882 121.629 182.07 109.917 182.276C103.859 182.379 91.5077 182.653 82.4681 182.876L81.9031 182.891C67.4767 183.246 64.8153 183.313 63.433 182.017C63.099 181.708 62.8432 181.321 62.5127 180.841C61.795 179.794 61.6244 178.97 61.3863 175.444C61.23 173.153 61.095 169.183 61.0808 166.626C61.063 162.364 61.127 161.87 61.8625 160.766C63.4295 158.419 63.5823 158.394 79.7143 157.975C87.727 157.765 96.7204 157.545 99.7016 157.485L105.12 157.378L106.098 156.089C107.373 154.413 108.535 153.536 111.054 152.357C111.872 151.973 112.437 151.742 113.129 151.6ZM76.1112 146.817C75.2797 147.165 73.265 147.307 69.1432 147.307C63.1737 147.307 62.7473 147.218 61.1483 145.662C60.2848 144.817 60.061 143.464 59.8264 137.697C59.6026 132.167 59.631 131.795 60.331 130.683C61.5356 128.779 62.7544 128.485 69.4168 128.485H69.4417C73.8016 128.485 76.0259 128.485 77.1985 129.593C78.4244 130.75 78.5097 133.119 78.6838 137.952C78.9112 144.192 78.9041 144.302 78.1011 145.307C77.6534 145.868 76.7579 146.547 76.1112 146.817ZM92.4706 109.787C87.798 109.911 78.6198 110.114 72.0747 110.238C60.2955 110.462 60.164 110.458 59.5031 109.72C58.6254 108.739 58.661 107.287 59.5813 106.364C60.3026 105.643 60.7681 105.611 74.2848 105.359C98.7777 104.904 100.743 104.933 101.567 105.756C102.455 106.644 102.48 108.04 101.62 108.899C101.031 109.489 100.082 109.581 92.4706 109.787ZM82.994 118.662C64.897 119.07 60.5478 118.996 59.9117 118.275C58.9061 117.128 58.8457 116.19 59.7127 115.203L60.5264 114.28L76.9569 114.045C92.5239 113.821 93.4264 113.843 94.1016 114.454C95.0183 115.285 95.0183 116.904 94.098 117.76C93.4442 118.367 92.4777 118.449 82.994 118.662ZM111.964 121.272C112.931 123.474 114.86 127.615 116.832 131.695C117.539 133.162 118.25 134.643 118.946 136.109C118.577 135.385 118.324 134.934 118.239 134.877C118.097 134.781 114.97 134.802 111.285 134.927C107.601 135.051 100.217 135.211 94.8726 135.282L85.1579 135.406L84.4792 134.572C83.5909 133.474 83.6229 132.991 84.6569 131.791L85.5168 130.793L100.203 130.516C108.283 130.363 115.208 130.236 115.599 130.232C116.178 130.228 116.21 130.168 115.777 129.895C115.485 129.71 115.357 129.557 115.489 129.557C115.62 129.554 114.949 127.895 113.996 125.871C113.193 124.17 112.518 122.65 111.964 121.272ZM104.197 143.798C101.283 143.919 95.9777 144.039 92.3995 144.064C85.9432 144.11 85.8935 144.103 85.0265 143.24C83.9391 142.15 83.9285 141.465 84.9803 140.414C85.794 139.6 85.9219 139.59 97.2463 139.327C107.355 139.096 108.787 139.131 109.541 139.625C110.784 140.438 111.015 141.529 110.184 142.644C109.502 143.56 109.384 143.581 104.197 143.798ZM64.5061 43.6229C63.7386 44.0917 62.7259 44.3154 61.3792 44.319C57.897 44.319 55.7295 42.0888 55.7295 38.502C55.7295 32.5606 63.7671 30.9164 66.3858 36.3215C67.7325 39.1021 66.9508 42.1349 64.5061 43.6229ZM121.412 40.8209C119.781 40.9559 115.528 41.0802 111.96 41.0944C105.927 41.1193 105.426 41.0731 104.765 40.4126C104.058 39.7058 103.827 38.1042 104.328 37.3584C105.039 36.293 106.3 36.151 114.984 36.151C123.772 36.151 123.836 36.1581 124.603 36.9713C125.491 37.9195 125.587 38.921 124.877 39.8941C124.486 40.4268 123.74 40.6256 121.412 40.8209ZM99.2219 71.3586C101.791 72.5553 105.081 71.5326 106.275 69.1674C108.151 65.4492 105.501 61.0314 101.389 61.0172C95.8782 60.9994 94.1975 69.0218 99.2219 71.3586ZM114.686 102.539C114.306 102.837 113.943 103.168 113.588 103.533C112.071 105.096 111.022 106.829 110.44 108.747C111.211 106.119 112.696 103.984 114.686 102.539ZM110.045 110.519C109.807 112.124 109.857 113.846 110.198 115.693C109.818 113.782 109.786 112.142 110.045 110.519ZM124.791 148.809C126.039 151.639 126.785 153.472 126.692 153.564L126.689 153.568C126.749 153.429 125.936 151.444 124.791 148.809Z" fill="var(--md-sys-color-surface-container-high)"/>
</svg>
